<?xml version="1.0" encoding="UTF-8"?>
<svg version="1.1" xmlns="http://www.w3.org/2000/svg" width="210" height="108">
<path d="M0 0 C69.3 0 138.6 0 210 0 C210 35.64 210 71.28 210 108 C140.7 108 71.4 108 0 108 C0 72.36 0 36.72 0 0 Z " fill="#FBFEFD" transform="translate(0,0)"/>
<path d="M0 0 C3.29714793 0.32971479 4.6226839 0.6226839 7 3 C7.391875 2.484375 7.78375 1.96875 8.1875 1.4375 C10 0 10 0 12.5 0.25 C17.90640394 1.87192118 17.90640394 1.87192118 19.1875 3.625 C20.27499354 6.80382728 20.1282071 9.66661533 20 13 C20.66 12.67 21.32 12.34 22 12 C27.97473466 11.381924 31.29223055 12.15185867 36.2421875 15.55859375 C38.54263907 17.44496404 40.26325912 19.59528186 42 22 C42.66 22.33 43.32 22.66 44 23 C44.25910156 22.40574219 44.51820312 21.81148437 44.78515625 21.19921875 C46.08804176 18.84061893 47.38065304 17.53317412 49.4375 15.8125 C50.33275391 15.04873047 50.33275391 15.04873047 51.24609375 14.26953125 C53 13 53 13 56 12 C54.68 12 53.36 12 52 12 C51.34 12.66 50.68 13.32 50 14 C47.22130072 13.7862539 45.44844389 13.2989626 43.125 11.75 C42 10 42 10 42.1875 7.4375 C43 5 43 5 45 3 C48.5625 3.25 48.5625 3.25 52 4 C52.495 4.99 52.495 4.99 53 6 C53.556875 5.690625 54.11375 5.38125 54.6875 5.0625 C57.20907102 3.90394034 59.22716229 3.21329521 62 3 C63.8125 4.4375 63.8125 4.4375 65 6 C67.6905528 4.77992056 67.6905528 4.77992056 70 3 C70.78375 3.04125 71.5675 3.0825 72.375 3.125 C75.05691176 3.30550324 75.05691176 3.30550324 76.4375 1.4375 C78 0 78 0 80.9375 0 C84.78924842 1.25771377 85.983431 2.50978442 88 6 C88.25 9.3125 88.25 9.3125 88 12 C91.3 12 94.6 12 98 12 C98 12.99 98 13.98 98 15 C98.66 15 99.32 15 100 15 C99.62376963 17.63361256 98.94785432 19.07220172 97.375 21.25 C94.17063934 23.61110785 91.88290217 23.29868478 88 23 C88.14037521 24.81293089 88.28744889 26.6253443 88.4375 28.4375 C88.51871094 29.44683594 88.59992188 30.45617187 88.68359375 31.49609375 C88.73211468 33.93640779 88.73211468 33.93640779 90 35 C92.80208077 35.53522891 95.61469091 35.96499116 98.43359375 36.40234375 C101 37 101 37 103 39 C103.01981934 37.88963379 103.03963867 36.77926758 103.06005859 35.63525391 C103.13601081 31.52385398 103.2247436 27.41281282 103.31738281 23.30175781 C103.35571565 21.52090527 103.39056089 19.73997416 103.421875 17.95898438 C103.46743271 15.40205766 103.52544107 12.8456739 103.5859375 10.2890625 C103.59748871 9.49005524 103.60903992 8.69104797 103.62094116 7.86782837 C103.77225659 2.22774341 103.77225659 2.22774341 106 0 C109.51931556 0.09511664 110.9754079 0.98043811 113.75 3.1875 C116.21461548 6.26826936 116.72903553 8.11617586 117 12 C118.155 11.9175 119.31 11.835 120.5 11.75 C126.55986578 11.75 131.06604644 14.2594418 135.5 18.25 C135.995 18.8275 136.49 19.405 137 20 C137.33 18.02 137.66 16.04 138 14 C138.66 14 139.32 14 140 14 C140 13.34 140 12.68 140 12 C142.38564077 12.57584432 144.66682784 13.22227595 147 14 C147.74636719 13.69320312 148.49273437 13.38640625 149.26171875 13.0703125 C152.60288869 11.76434878 155.237966 11.80278719 158.8125 11.875 C160.55466797 11.90207031 160.55466797 11.90207031 162.33203125 11.9296875 C163.65267578 11.96449219 163.65267578 11.96449219 165 12 C165.33 12.66 165.66 13.32 166 14 C166.33 13.34 166.66 12.68 167 12 C166.505 11.62875 166.01 11.2575 165.5 10.875 C164 9 164 9 163.625 6 C164 3 164 3 165.125 1.125 C167.92446741 -0.55468045 169.79804064 -0.45742277 173 0 C175.375 1.75 175.375 1.75 177 4 C177 5.32 177 6.64 177 8 C176.34 8 175.68 8 175 8 C174.67 8.99 174.34 9.98 174 11 C173.34 11 172.68 11 172 11 C173.52206009 13.62901288 174.84365964 15.84365964 177 18 C177.25878906 20.67382813 177.25878906 20.67382813 177.265625 24.03125 C177.26820313 25.23394531 177.27078125 26.43664062 177.2734375 27.67578125 C177.26570312 28.93777344 177.25796875 30.19976562 177.25 31.5 C177.25773438 32.76199219 177.26546875 34.02398437 177.2734375 35.32421875 C177.27085937 36.52691406 177.26828125 37.72960938 177.265625 38.96875 C177.26336914 40.07669922 177.26111328 41.18464844 177.25878906 42.32617188 C177 45 177 45 175 47 C171.65994468 46.85786999 169.70257394 46.73223978 167.34057617 44.27050781 C165.75835869 41.5907368 165.57827651 39.89271184 165.48828125 36.796875 C165.45283203 35.8171875 165.41738281 34.8375 165.38085938 33.828125 C165.35830078 32.81234375 165.33574219 31.7965625 165.3125 30.75 C165.27833984 29.71875 165.24417969 28.6875 165.20898438 27.625 C165.12661907 25.08344188 165.05743166 22.54222374 165 20 C164.33097656 20.73210693 164.33097656 20.73210693 163.6484375 21.47900391 C161.42429616 23.53119593 159.98027426 23.33065068 157 23.375 C154.36135271 23.49080998 154.36135271 23.49080998 152 24 C149.93545998 26.40743101 149.93545998 26.40743101 149 29 C148.34 29 147.68 29 147 29 C147 32.63 147 36.26 147 40 C147.66 40 148.32 40 149 40 C147.72200196 42.85091869 146.62103327 45.22144171 144 47 C141.0625 46.625 141.0625 46.625 138 46 C137.319375 46.226875 136.63875 46.45375 135.9375 46.6875 C134 47 134 47 131.3125 45.1875 C127.09135375 41.19452382 127.66706657 36.78811289 127.39453125 31.32226562 C127.49806566 27.86745986 127.49806566 27.86745986 126 25 C123.96853943 24.72327953 123.96853943 24.72327953 121.625 24.6875 C120.83351562 24.65011719 120.04203125 24.61273438 119.2265625 24.57421875 C116.8796183 24.82013961 116.8796183 24.82013961 115.2109375 26.6484375 C113.27487807 30.40814 113.93708459 33.9007064 114.1875 38.02734375 C113.96763182 41.51317046 113.11391581 43.24745389 111 46 C108.3125 46.8125 108.3125 46.8125 106 47 C106 46.34 106 45.68 106 45 C105.62230469 45.48597656 105.24460938 45.97195312 104.85546875 46.47265625 C101.63456272 49.12397048 98.09125123 48.45821648 94.08203125 48.3515625 C88.20043649 47.68065815 84.45112666 45.59623932 80.5 41.25 C80.005 40.5075 79.51 39.765 79 39 C78.01 39.99 78.01 39.99 77 41 C77.165 41.639375 77.33 42.27875 77.5 42.9375 C77.665 43.618125 77.83 44.29875 78 45 C76 48 76 48 74.15576172 48.40405273 C71.72771093 48.43627407 69.3032779 48.45767451 66.875 48.4375 C65.62976563 48.4674707 65.62976563 48.4674707 64.359375 48.49804688 C57.15376595 48.49239985 51.87337001 46.58603301 46.5 41.75 C46.005 41.1725 45.51 40.595 45 40 C44.01 42.97 44.01 42.97 43 46 C40.8125 46.8125 40.8125 46.8125 38 47 C35.25 44.625 35.25 44.625 33 42 C32.67 41.67 32.34 41.34 32 41 C31.83073131 37.84784076 31.70269984 34.70317538 31.65820312 31.546875 C31.52094653 28.26548472 31.42676877 26.44983735 29.12109375 24.01953125 C26.99769584 22.80107776 26.99769584 22.80107776 24.375 23.0625 C21.93605657 23.77158697 21.93605657 23.77158697 20.87109375 25.625 C19.71615172 28.77390023 19.75537234 31.59032216 19.6875 34.9375 C19.2252218 42.72323809 19.2252218 42.72323809 16.75 45.4375 C14 47 14 47 11.1875 46.8125 C10.465625 46.544375 9.74375 46.27625 9 46 C8.67 45.01 8.34 44.02 8 43 C7.505 43.99 7.505 43.99 7 45 C5.515 45.495 5.515 45.495 4 46 C3.67 46.66 3.34 47.32 3 48 C0.62429457 48.0816082 -1.74855841 48.14077222 -4.125 48.1875 C-4.79015625 48.21263672 -5.4553125 48.23777344 -6.140625 48.26367188 C-12.33193981 48.35472062 -16.14917663 46.67865375 -20.6875 42.5625 C-25.5208825 37.20658967 -26.66272427 34.35418373 -26.484375 27.05078125 C-25.72055162 22.23992592 -23.49952033 19.2849271 -20 16 C-15.04579911 12.4283668 -11.05915739 11.78360152 -5 12 C-4.01 12.33 -3.02 12.66 -2 13 C-2.02320312 12.22914062 -2.04640625 11.45828125 -2.0703125 10.6640625 C-2.08835937 9.66117188 -2.10640625 8.65828125 -2.125 7.625 C-2.14820312 6.62726562 -2.17140625 5.62953125 -2.1953125 4.6015625 C-2 2 -2 2 0 0 Z " fill="#0BA359" transform="translate(30,20)"/>
<path d="M0 0 C2 0.75 2 0.75 5 2.75 C5.6875 5.375 5.6875 5.375 6 7.75 C6.99 7.09 7.98 6.43 9 5.75 C9.99 5.75 10.98 5.75 12 5.75 C12 6.41 12 7.07 12 7.75 C12.66 7.75 13.32 7.75 14 7.75 C14 7.09 14 6.43 14 5.75 C17.20280069 6.01690006 18.7943912 6.58329016 21.3125 8.625 C23.81520693 13.25964246 23.92874653 17.59545678 23 22.75 C20.5625 25.875 20.5625 25.875 18 27.75 C17.67 28.08 17.34 28.41 17 28.75 C10.53846154 29.10897436 10.53846154 29.10897436 7 26.75 C7 26.09 7 25.43 7 24.75 C2.9946765 24.31389871 2.9946765 24.31389871 0.6875 26.75 C-2 28.75 -2 28.75 -5.375 29.3125 C-10.14845664 28.57179121 -12.28506397 26.78260084 -16 23.75 C-16.28875 24.389375 -16.5775 25.02875 -16.875 25.6875 C-18 27.75 -18 27.75 -20 28.75 C-23.462754 29.22527996 -25.94280058 29.43993938 -28.9453125 27.48046875 C-30.70797642 25.96487278 -32.37169875 24.40837542 -34 22.75 C-34.99 21.76 -34.99 21.76 -36 20.75 C-36.4021875 21.8946875 -36.4021875 21.8946875 -36.8125 23.0625 C-37.96131822 25.66245703 -38.67278944 27.13885423 -41 28.75 C-43.44088836 28.45906583 -44.67904534 28.06403381 -46.44921875 26.33203125 C-49.14163428 22.48451 -50.64776068 19.56393734 -51 14.75 C-52.32 14.75 -53.64 14.75 -55 14.75 C-55 18.38 -55 22.01 -55 25.75 C-55.66 25.75 -56.32 25.75 -57 25.75 C-57 26.74 -57 27.73 -57 28.75 C-58.32 28.42 -59.64 28.09 -61 27.75 C-61 27.09 -61 26.43 -61 25.75 C-62.73575649 24.87563582 -62.73575649 24.87563582 -65 24.75 C-65.763125 25.389375 -66.52625 26.02875 -67.3125 26.6875 C-70 28.75 -70 28.75 -73.5 29.25 C-77.57523377 28.66782375 -79.19260111 27.72254 -82 24.75 C-82.8125 22.5 -82.8125 22.5 -83 20.75 C-83.66 20.75 -84.32 20.75 -85 20.75 C-85.20625 21.595625 -85.4125 22.44125 -85.625 23.3125 C-87.33021221 27.57553052 -89.5044736 30.75383451 -93 33.75 C-95.6875 34.375 -95.6875 34.375 -98 33.75 C-99.875 32.5 -99.875 32.5 -101 30.75 C-100.6875 28.5625 -100.6875 28.5625 -100 26.75 C-98.68 26.42 -97.36 26.09 -96 25.75 C-96.66 24.43 -97.32 23.11 -98 21.75 C-100.30654334 23.34071954 -101.85686476 24.51144127 -103.3125 26.9375 C-105 28.75 -105 28.75 -108.25 29.375 C-112.5105785 28.66490358 -114.64099049 27.59263842 -117.75 24.6640625 C-119.72373611 21.64177908 -119.22731409 19.28710883 -118.51953125 15.86328125 C-118.34808594 15.16589844 -118.17664063 14.46851562 -118 13.75 C-117.896875 12.80125 -117.79375 11.8525 -117.6875 10.875 C-116.77397426 8.051375 -115.55926803 7.18017919 -113 5.75 C-112.01 5.75 -111.02 5.75 -110 5.75 C-110 6.41 -110 7.07 -110 7.75 C-109.34 7.75 -108.68 7.75 -108 7.75 C-108 7.09 -108 6.43 -108 5.75 C-107.01 5.75 -106.02 5.75 -105 5.75 C-104.67 6.41 -104.34 7.07 -104 7.75 C-102.68 7.75 -101.36 7.75 -100 7.75 C-100 7.09 -100 6.43 -100 5.75 C-96.31245243 6.24831724 -94.39509338 6.85067643 -92 9.75 C-90.68 9.09 -89.36 8.43 -88 7.75 C-88 7.09 -88 6.43 -88 5.75 C-86.68 5.75 -85.36 5.75 -84 5.75 C-84 6.41 -84 7.07 -84 7.75 C-83.34 7.75 -82.68 7.75 -82 7.75 C-82 7.09 -82 6.43 -82 5.75 C-78.31245243 6.24831724 -76.39509338 6.85067643 -74 9.75 C-73.4225 9.069375 -72.845 8.38875 -72.25 7.6875 C-70 5.75 -70 5.75 -68 5.875 C-65.95882504 6.76801405 -63.96415596 7.69777359 -62 8.75 C-61.46503906 8.26273438 -60.93007812 7.77546875 -60.37890625 7.2734375 C-57.38267606 5.3546694 -55.47132548 5.3487262 -51.9375 5.375 C-50.89464844 5.36726563 -49.85179688 5.35953125 -48.77734375 5.3515625 C-46 5.75 -46 5.75 -44.19140625 7.0859375 C-43 8.75 -43 8.75 -42 11.75 C-41.773125 10.945625 -41.54625 10.14125 -41.3125 9.3125 C-40 6.75 -40 6.75 -37.625 5.8125 C-34.76387491 5.74437797 -33.39429588 6.24248037 -31 7.75 C-30.01 7.09 -29.02 6.43 -28 5.75 C-21.01408451 5.07394366 -21.01408451 5.07394366 -17 7.75 C-16.01 8.74 -16.01 8.74 -15 9.75 C-14.46375 9.110625 -13.9275 8.47125 -13.375 7.8125 C-10.55632807 5.36470596 -8.66139268 5.08285388 -5 4.75 C-5 3.76 -5 2.77 -5 1.75 C-2 -0.25 -2 -0.25 0 0 Z " fill="#12A660" transform="translate(153,69.25)"/>
<path d="M0 0 C3.7652358 0.25672062 5.55839511 0.59325866 8.375 3.1875 C10.24249951 6.41971069 10.34155908 8.32823991 10 12 C13.3 12 16.6 12 20 12 C20 12.99 20 13.98 20 15 C20.66 15 21.32 15 22 15 C21.62376963 17.63361256 20.94785432 19.07220172 19.375 21.25 C16.17063934 23.61110785 13.88290217 23.29868478 10 23 C10.14037521 24.81293089 10.28744889 26.6253443 10.4375 28.4375 C10.55931641 29.95150391 10.55931641 29.95150391 10.68359375 31.49609375 C10.73211468 33.93640779 10.73211468 33.93640779 12 35 C14.80208077 35.53522891 17.61469091 35.96499116 20.43359375 36.40234375 C23 37 23 37 25 39 C25.01981934 37.88963379 25.03963867 36.77926758 25.06005859 35.63525391 C25.13601081 31.52385398 25.2247436 27.41281282 25.31738281 23.30175781 C25.35571565 21.52090527 25.39056089 19.73997416 25.421875 17.95898438 C25.46743271 15.40205766 25.52544107 12.8456739 25.5859375 10.2890625 C25.60326431 9.09055161 25.60326431 9.09055161 25.62094116 7.86782837 C25.77225659 2.22774341 25.77225659 2.22774341 28 0 C31.51931556 0.09511664 32.9754079 0.98043811 35.75 3.1875 C38.21461548 6.26826936 38.72903553 8.11617586 39 12 C40.155 11.9175 41.31 11.835 42.5 11.75 C48.55986578 11.75 53.06604644 14.2594418 57.5 18.25 C57.995 18.8275 58.49 19.405 59 20 C59.33 18.02 59.66 16.04 60 14 C60.66 14 61.32 14 62 14 C62 13.34 62 12.68 62 12 C64.38564077 12.57584432 66.66682784 13.22227595 69 14 C69.74636719 13.69320312 70.49273437 13.38640625 71.26171875 13.0703125 C74.60288869 11.76434878 77.237966 11.80278719 80.8125 11.875 C81.97394531 11.89304687 83.13539063 11.91109375 84.33203125 11.9296875 C85.65267578 11.96449219 85.65267578 11.96449219 87 12 C87.495 12.99 87.495 12.99 88 14 C88.33 13.34 88.66 12.68 89 12 C88.505 11.62875 88.01 11.2575 87.5 10.875 C86 9 86 9 85.625 6 C86 3 86 3 87.125 1.125 C89.92446741 -0.55468045 91.79804064 -0.45742277 95 0 C97.375 1.75 97.375 1.75 99 4 C99 5.32 99 6.64 99 8 C98.34 8 97.68 8 97 8 C96.67 8.99 96.34 9.98 96 11 C95.34 11 94.68 11 94 11 C95.52206009 13.62901288 96.84365964 15.84365964 99 18 C99.25878906 20.67382813 99.25878906 20.67382813 99.265625 24.03125 C99.26949219 25.83529297 99.26949219 25.83529297 99.2734375 27.67578125 C99.26570313 28.93777344 99.25796875 30.19976562 99.25 31.5 C99.26160156 33.39298828 99.26160156 33.39298828 99.2734375 35.32421875 C99.27085937 36.52691406 99.26828125 37.72960938 99.265625 38.96875 C99.26336914 40.07669922 99.26111328 41.18464844 99.25878906 42.32617188 C99 45 99 45 97 47 C93.65994468 46.85786999 91.70257394 46.73223978 89.34057617 44.27050781 C87.75835869 41.5907368 87.57827651 39.89271184 87.48828125 36.796875 C87.45283203 35.8171875 87.41738281 34.8375 87.38085938 33.828125 C87.35830078 32.81234375 87.33574219 31.7965625 87.3125 30.75 C87.27833984 29.71875 87.24417969 28.6875 87.20898438 27.625 C87.12661907 25.08344188 87.05743166 22.54222374 87 20 C86.33097656 20.73210693 86.33097656 20.73210693 85.6484375 21.47900391 C83.42429616 23.53119593 81.98027426 23.33065068 79 23.375 C76.36135271 23.49080998 76.36135271 23.49080998 74 24 C71.93545998 26.40743101 71.93545998 26.40743101 71 29 C70.34 29 69.68 29 69 29 C69 32.63 69 36.26 69 40 C69.66 40 70.32 40 71 40 C69.72200196 42.85091869 68.62103327 45.22144171 66 47 C63.0625 46.625 63.0625 46.625 60 46 C59.319375 46.226875 58.63875 46.45375 57.9375 46.6875 C56 47 56 47 53.3125 45.1875 C49.09135375 41.19452382 49.66706657 36.78811289 49.39453125 31.32226562 C49.49806566 27.86745986 49.49806566 27.86745986 48 25 C45.96853943 24.72327953 45.96853943 24.72327953 43.625 24.6875 C42.83351562 24.65011719 42.04203125 24.61273438 41.2265625 24.57421875 C38.8796183 24.82013961 38.8796183 24.82013961 37.2109375 26.6484375 C35.27487807 30.40814 35.93708459 33.9007064 36.1875 38.02734375 C35.96763182 41.51317046 35.11391581 43.24745389 33 46 C30.3125 46.8125 30.3125 46.8125 28 47 C28 46.34 28 45.68 28 45 C27.62230469 45.48597656 27.24460938 45.97195312 26.85546875 46.47265625 C23.63456272 49.12397048 20.09125123 48.45821648 16.08203125 48.3515625 C10.20043649 47.68065815 6.45112666 45.59623932 2.5 41.25 C2.005 40.5075 1.51 39.765 1 39 C0.34 39.66 -0.32 40.32 -1 41 C-0.59070014 43.05396726 -0.59070014 43.05396726 0 45 C-1 46 -1 46 -4.81640625 46.09765625 C-6.39846682 46.09098089 -7.98051159 46.07901875 -9.5625 46.0625 C-10.36880859 46.05798828 -11.17511719 46.05347656 -12.00585938 46.04882812 C-14.00393756 46.03700518 -16.00197783 46.01906914 -18 46 C-18 45.67 -18 45.34 -18 45 C-13.38 45 -8.76 45 -4 45 C-3.67 35.1 -3.34 25.2 -3 15 C-4.65 15 -6.3 15 -8 15 C-10 12 -10 12 -9.625 8.8125 C-9.41875 7.884375 -9.2125 6.95625 -9 6 C-8.34 6 -7.68 6 -7 6 C-6.67 5.34 -6.34 4.68 -6 4 C-4.68 4 -3.36 4 -2 4 C-1.34 2.68 -0.68 1.36 0 0 Z " fill="#0CA55D" transform="translate(108,20)"/>
<path d="M0 0 C3.5625 0.25 3.5625 0.25 7 1 C7.33 1.66 7.66 2.32 8 3 C8.556875 2.690625 9.11375 2.38125 9.6875 2.0625 C12.20907102 0.90394034 14.22716229 0.21329521 17 0 C18.8125 1.4375 18.8125 1.4375 20 3 C22.6905528 1.77992056 22.6905528 1.77992056 25 0 C26.66617115 -0.04063832 28.33388095 -0.042721 30 0 C26.25 3 26.25 3 24 3 C23.7497843 5.91634129 23.7497843 5.91634129 24 9 C26.8684413 11.10232344 26.8684413 11.10232344 30 12 C30.02902996 16.24998566 30.04680887 20.49994581 30.0625 24.75 C30.07087891 25.9565625 30.07925781 27.163125 30.08789062 28.40625 C30.09111328 29.56640625 30.09433594 30.7265625 30.09765625 31.921875 C30.10289307 32.99018555 30.10812988 34.05849609 30.11352539 35.15917969 C30.01503008 37.62389235 29.71565464 39.65245467 29 42 C29.99 42.495 29.99 42.495 31 43 C31 43.66 31 44.32 31 45 C27.95778935 45.08132642 24.9177762 45.14065374 21.875 45.1875 C21.0190625 45.21263672 20.163125 45.23777344 19.28125 45.26367188 C14.08836804 45.32358974 10.47134773 44.95753722 6 42 C4.25 39.4375 4.25 39.4375 3 37 C2.34 36.34 1.68 35.68 1 35 C0.8046875 31.7421875 0.8046875 31.7421875 0.875 27.875 C0.89304687 26.59367187 0.91109375 25.31234375 0.9296875 23.9921875 C0.95289062 23.00476563 0.97609375 22.01734375 1 21 C0.34 21 -0.32 21 -1 21 C-0.45123677 17.23348872 1.00763849 15.73347739 3.875 13.3125 C4.92300781 12.40951172 4.92300781 12.40951172 5.9921875 11.48828125 C8 10 8 10 11 9 C9.68 9 8.36 9 7 9 C6.34 9.66 5.68 10.32 5 11 C2.22130072 10.7862539 0.44844389 10.2989626 -1.875 8.75 C-3 7 -3 7 -2.8125 4.4375 C-2 2 -2 2 0 0 Z " fill="#12A862" transform="translate(75,23)"/>
<path d="M0 0 C2 0.75 2 0.75 5 2.75 C5.6875 5.375 5.6875 5.375 6 7.75 C6.99 7.09 7.98 6.43 9 5.75 C9.99 5.75 10.98 5.75 12 5.75 C12 6.41 12 7.07 12 7.75 C12.66 7.75 13.32 7.75 14 7.75 C14 7.09 14 6.43 14 5.75 C17.20280069 6.01690006 18.7943912 6.58329016 21.3125 8.625 C23.81520693 13.25964246 23.92874653 17.59545678 23 22.75 C20.5625 25.875 20.5625 25.875 18 27.75 C17.505 28.245 17.505 28.245 17 28.75 C10.53846154 29.10897436 10.53846154 29.10897436 7 26.75 C7 26.09 7 25.43 7 24.75 C2.9946765 24.31389871 2.9946765 24.31389871 0.6875 26.75 C-2 28.75 -2 28.75 -5.375 29.3125 C-10.14845664 28.57179121 -12.28506397 26.78260084 -16 23.75 C-16.33 24.74 -16.66 25.73 -17 26.75 C-17.66 26.42 -18.32 26.09 -19 25.75 C-19 24.76 -19 23.77 -19 22.75 C-20.98 22.75 -22.96 22.75 -25 22.75 C-25 22.42 -25 22.09 -25 21.75 C-23.02 21.42 -21.04 21.09 -19 20.75 C-18.855625 20.110625 -18.71125 19.47125 -18.5625 18.8125 C-18 16.75 -18 16.75 -17 15.75 C-16.95936168 14.08382885 -16.957279 12.41611905 -17 10.75 C-19.76047543 9.82984152 -21.63362269 9.55732755 -24.5 9.5 C-25.2734375 9.47421875 -26.046875 9.4484375 -26.84375 9.421875 C-29.52637655 9.83010078 -30.33389094 10.65720447 -32 12.75 C-32.33 13.41 -32.66 14.07 -33 14.75 C-33.66 14.42 -34.32 14.09 -35 13.75 C-35 11.77 -35 9.79 -35 7.75 C-35.99 7.75 -36.98 7.75 -38 7.75 C-38.33 8.74 -38.66 9.73 -39 10.75 C-39 10.09 -39 9.43 -39 8.75 C-39.66 8.42 -40.32 8.09 -41 7.75 C-40.34 7.09 -39.68 6.43 -39 5.75 C-36.625 6.125 -36.625 6.125 -34 6.75 C-30.2236068 7.0481424 -30.2236068 7.0481424 -28 5.75 C-20.87591241 5.16605839 -20.87591241 5.16605839 -17 7.75 C-16.34 8.41 -15.68 9.07 -15 9.75 C-14.46375 9.110625 -13.9275 8.47125 -13.375 7.8125 C-10.55632807 5.36470596 -8.66139268 5.08285388 -5 4.75 C-5 3.76 -5 2.77 -5 1.75 C-2 -0.25 -2 -0.25 0 0 Z " fill="#11A761" transform="translate(153,69.25)"/>
<path d="M0 0 C2.9375 0.1875 2.9375 0.1875 6 1 C8.72640172 4.22211113 8.15537649 7.96021122 8 12 C8.66 11.67 9.32 11.34 10 11 C15.97975883 10.38140426 19.29502948 11.15595777 24.25 14.5625 C26.53905435 16.44279465 28.21791898 18.64510723 30 21 C30.68578125 21.23589844 31.3715625 21.47179687 32.078125 21.71484375 C32.71234375 22.13894531 33.3465625 22.56304687 34 23 C34.46875 26.1171875 34.46875 26.1171875 34.5 29.875 C34.4277304 35.12400211 34.4277304 35.12400211 37.03125 39.4453125 C38.00578125 40.21488281 38.00578125 40.21488281 39 41 C38.67 41.99 38.34 42.98 38 44 C36.35 42.35 34.7 40.7 33 39 C32.34 40.98 31.68 42.96 31 45 C28.8125 45.8125 28.8125 45.8125 26 46 C23.25 43.625 23.25 43.625 21 41 C20.505 40.505 20.505 40.505 20 40 C19.83073131 36.84784076 19.70269984 33.70317538 19.65820312 30.546875 C19.52094653 27.26548472 19.42676877 25.44983735 17.12109375 23.01953125 C14.99769584 21.80107776 14.99769584 21.80107776 12.375 22.0625 C9.93672588 22.77113382 9.93672588 22.77113382 8.875 24.62109375 C7.33072503 28.81959132 7.64236494 33.25488607 7.5390625 37.6875 C7 41 7 41 5.2109375 43.5 C3 45 3 45 0.86181641 44.59375 C0.24741699 44.3978125 -0.36698242 44.201875 -1 44 C-1.02464513 37.8944529 -1.04283371 31.78893449 -1.05493164 25.68334961 C-1.05997288 23.60456844 -1.06680574 21.52579084 -1.07543945 19.44702148 C-1.08751422 16.46597414 -1.09323024 13.48497351 -1.09765625 10.50390625 C-1.10539818 9.10078941 -1.10539818 9.10078941 -1.11329651 7.66932678 C-1.11337204 6.80850998 -1.11344757 5.94769318 -1.11352539 5.06079102 C-1.115746 4.29912125 -1.11796661 3.53745148 -1.12025452 2.75270081 C-1 1 -1 1 0 0 Z " fill="#09A55C" transform="translate(42,21)"/>
<path d="M0 0 C3.98121034 -0.20243442 7.15238093 -0.2295635 11 0.8125 C13.9794528 4.07127649 13.67995636 7.03477404 13.50390625 11.328125 C12.78956214 15.11581006 11.05453857 16.76497178 8 19 C7.67 19.33 7.34 19.66 7 20 C3.19218744 20.3592276 0.82339489 20.49403694 -2.5 18.5 C-4.81616593 14.63972346 -4.04913219 12.33641305 -3 8 C-2.01 7.34 -1.02 6.68 0 6 C0 5.67 0 5.34 0 5 C1.65 4.67 3.3 4.34 5 4 C5 3.34 5 2.68 5 2 C3.02 2 1.04 2 -1 2 C-0.67 1.34 -0.34 0.68 0 0 Z " fill="#07A35B" transform="translate(163,78)"/>
<path d="M0 0 C2.875 0.3125 2.875 0.3125 6 1 C6.66 1.99 7.32 2.98 8 4 C4.79604584 4 2.90600261 3.25664978 0 2 C0.020625 3.216875 0.04125 4.43375 0.0625 5.6875 C0.10179637 8.00598587 0.00175276 9.99203306 -0.49780273 12.26269531 C-1.04458939 15.24304142 -1.12951949 18.00582245 -1.1328125 21.03515625 C-1.13410156 22.17404297 -1.13539062 23.31292969 -1.13671875 24.48632812 C-1.13091797 26.2565332 -1.13091797 26.2565332 -1.125 28.0625 C-1.12886719 29.24650391 -1.13273437 30.43050781 -1.13671875 31.65039062 C-1.13542969 32.78798828 -1.13414063 33.92558594 -1.1328125 35.09765625 C-1.13168457 36.13414307 -1.13055664 37.17062988 -1.12939453 38.23852539 C-1.01568913 40.6651703 -0.59190446 42.6643679 0 45 C-1 46 -1 46 -4.81640625 46.09765625 C-6.39846682 46.09098089 -7.98051159 46.07901875 -9.5625 46.0625 C-10.36880859 46.05798828 -11.17511719 46.05347656 -12.00585938 46.04882812 C-14.00393756 46.03700518 -16.00197783 46.01906914 -18 46 C-18 45.67 -18 45.34 -18 45 C-13.38 45 -8.76 45 -4 45 C-3.67 35.1 -3.34 25.2 -3 15 C-4.65 15 -6.3 15 -8 15 C-10 12 -10 12 -9.625 8.8125 C-9.41875 7.884375 -9.2125 6.95625 -9 6 C-8.34 6 -7.68 6 -7 6 C-6.67 5.34 -6.34 4.68 -6 4 C-4.68 4 -3.36 4 -2 4 C-1.34 2.68 -0.68 1.36 0 0 Z " fill="#2BC07A" transform="translate(108,20)"/>
<path d="M0 0 C3.68754757 0.49831724 5.60490662 1.10067643 8 4 C8.33 3.34 8.66 2.68 9 2 C9.66 2 10.32 2 11 2 C11 6.95 11 11.9 11 17 C9.02 17 7.04 17 5 17 C5 12.38 5 7.76 5 3 C3.68 3 2.36 3 1 3 C1.02320312 3.84304687 1.04640625 4.68609375 1.0703125 5.5546875 C1.09738281 7.19824219 1.09738281 7.19824219 1.125 8.875 C1.14820312 9.96554688 1.17140625 11.05609375 1.1953125 12.1796875 C1 15 1 15 -1 17 C-1 16.34 -1 15.68 -1 15 C-1.66 15 -2.32 15 -3 15 C-3.2475 15.9075 -3.495 16.815 -3.75 17.75 C-5.03981342 21.10351489 -6.31971042 22.67708236 -9 25 C-9 21.80389448 -8.45328458 20.58282374 -7 17.8125 C-6.62875 17.09707031 -6.2575 16.38164063 -5.875 15.64453125 C-5.58625 15.10183594 -5.2975 14.55914062 -5 14 C-4.34 14 -3.68 14 -3 14 C-3.33 13.01 -3.66 12.02 -4 11 C-3.34 11 -2.68 11 -2 11 C-2.33 10.34 -2.66 9.68 -3 9 C-3.04022391 6.6670134 -3.04320247 4.33293334 -3 2 C-2.01 2 -1.02 2 0 2 C0 1.34 0 0.68 0 0 Z " fill="#1FA765" transform="translate(71,75)"/>
<path d="M0 0 C2.96981874 3.22806385 2.13752467 7.87425976 2 12 C0.20906809 12.08086147 -1.58289628 12.13912702 -3.375 12.1875 C-4.87160156 12.23970703 -4.87160156 12.23970703 -6.3984375 12.29296875 C-7.25695312 12.19628906 -8.11546875 12.09960938 -9 12 C-11.46943529 8.29584707 -11.46913089 6.37855495 -11 2 C-7.8995347 -1.96859559 -4.54234395 -1.26176221 0 0 Z " fill="#F3FDF8" transform="translate(26,44)"/>
<path d="M0 0 C0.33 0.66 0.66 1.32 1 2 C2.66500443 2.34153937 4.33178677 2.67449498 6 3 C8 5 8 5 8.1953125 7.3828125 C8.16050781 8.74019531 8.16050781 8.74019531 8.125 10.125 C8.10695313 11.03507812 8.08890625 11.94515625 8.0703125 12.8828125 C8.04710938 13.58148438 8.02390625 14.28015625 8 15 C6.37536158 15.05395478 4.75021459 15.09277195 3.125 15.125 C2.22007813 15.14820313 1.31515625 15.17140625 0.3828125 15.1953125 C-2 15 -2 15 -4 13 C-4.52941176 4.79411765 -4.52941176 4.79411765 -2 1 C-1.67 1.33 -1.34 1.66 -1 2 C-0.67 1.34 -0.34 0.68 0 0 Z " fill="#F4FCF8" transform="translate(88,41)"/>
<path d="M0 0 C2.375 1.75 2.375 1.75 4 4 C4 5.32 4 6.64 4 8 C3.34 8 2.68 8 2 8 C1.67 8.99 1.34 9.98 1 11 C0.34 11 -0.32 11 -1 11 C-0.67 12.32 -0.34 13.64 0 15 C-0.99 15.33 -1.98 15.66 -3 16 C-3 15.34 -3 14.68 -3 14 C-3.99 13.2575 -4.98 12.515 -6 11.75 C-8.59117211 9.6795126 -8.94207682 9.32179542 -9.5625 5.875 C-9 3 -9 3 -7.875 1.125 C-5.07553259 -0.55468045 -3.20195936 -0.45742277 0 0 Z " fill="#23A766" transform="translate(203,20)"/>
<path d="M0 0 C0.66 0.66 1.32 1.32 2 2 C1.67 2.99 1.34 3.98 1 5 C1.08573227 7.06587115 1.23833535 9.12946525 1.4375 11.1875 C1.53933594 12.27417969 1.64117187 13.36085938 1.74609375 14.48046875 C1.82988281 15.31191406 1.91367188 16.14335938 2 17 C2.66 17 3.32 17 4 17 C5.22067868 18.50978679 6.43827273 20.02383667 7.5859375 21.58984375 C10.15208452 24.14890196 12.70868244 23.99120418 16.234375 24.09765625 C17.39453125 24.08605469 18.5546875 24.07445313 19.75 24.0625 C20.92046875 24.05347656 22.0909375 24.04445313 23.296875 24.03515625 C24.18890625 24.02355469 25.0809375 24.01195313 26 24 C25.34 22.02 24.68 20.04 24 18 C26.0625 19.6875 26.0625 19.6875 28 22 C27.62109375 24.64453125 27.62109375 24.64453125 27 27 C24.62429457 27.0816082 22.25144159 27.14077222 19.875 27.1875 C19.20984375 27.21263672 18.5446875 27.23777344 17.859375 27.26367188 C11.66806019 27.35472062 7.85082337 25.67865375 3.3125 21.5625 C2.549375 20.716875 1.78625 19.87125 1 19 C0.46375 18.4121875 -0.0725 17.824375 -0.625 17.21875 C-2.42128278 14.32020279 -2.36706306 12.32460707 -2.3125 8.9375 C-2.30863281 7.89464844 -2.30476562 6.85179687 -2.30078125 5.77734375 C-2 3 -2 3 0 0 Z " fill="#40BA7F" transform="translate(6,41)"/>
<path d="M0 0 C1.125 3.75 1.125 3.75 0 6 C-2.475 5.505 -2.475 5.505 -5 5 C-5.433125 5.86625 -5.433125 5.86625 -5.875 6.75 C-6.91666667 8.83333333 -7.95833333 10.91666667 -9 13 C-9.99 12.34 -10.98 11.68 -12 11 C-12 10.34 -12 9.68 -12 9 C-14.76047543 8.07984152 -16.63362269 7.80732755 -19.5 7.75 C-20.2734375 7.72421875 -21.046875 7.6984375 -21.84375 7.671875 C-24.52637655 8.08010078 -25.33389094 8.90720447 -27 11 C-27.33 11.66 -27.66 12.32 -28 13 C-28.66 12.67 -29.32 12.34 -30 12 C-30 10.02 -30 8.04 -30 6 C-30.99 6 -31.98 6 -33 6 C-33.33 6.99 -33.66 7.98 -34 9 C-34 8.34 -34 7.68 -34 7 C-34.66 6.67 -35.32 6.34 -36 6 C-35.34 5.34 -34.68 4.68 -34 4 C-31.625 4.375 -31.625 4.375 -29 5 C-25.2236068 5.2981424 -25.2236068 5.2981424 -23 4 C-15.87591241 3.41605839 -15.87591241 3.41605839 -12 6 C-11.34 6.66 -10.68 7.32 -10 8 C-9.46375 7.360625 -8.9275 6.72125 -8.375 6.0625 C-5.55632807 3.61470596 -3.66139268 3.33285388 0 3 C0 2.01 0 1.02 0 0 Z " fill="#40AF7A" transform="translate(148,71)"/>
<path d="M0 0 C0.99 0.33 1.98 0.66 3 1 C2.86979167 2.953125 2.73958333 4.90625 2.609375 6.859375 C3.15551695 9.85223289 4.76050939 11.04264994 7 13 C4.58303128 13.05411124 2.16728213 13.09372278 -0.25 13.125 C-0.93191406 13.14175781 -1.61382812 13.15851562 -2.31640625 13.17578125 C-6.0608235 13.21213482 -8.82352727 13.07944349 -12 11 C-12 10.34 -12 9.68 -12 9 C-12.66 9 -13.32 9 -14 9 C-15.35439668 6.29120665 -15.06501451 3.99066732 -15 1 C-14.01 1 -13.02 1 -12 1 C-11.34 3.31 -10.68 5.62 -10 8 C-6.7 8.33 -3.4 8.66 0 9 C0 6.03 0 3.06 0 0 Z " fill="#43C58A" transform="translate(96,47)"/>
<path d="M0 0 C0.66 0.33 1.32 0.66 2 1 C2.625 3.5625 2.625 3.5625 3 6 C3.99 5.34 4.98 4.68 6 4 C6.99 4 7.98 4 9 4 C9 4.66 9 5.32 9 6 C9.66 6 10.32 6 11 6 C11 5.34 11 4.68 11 4 C13.375 4.3125 13.375 4.3125 16 5 C16.99 6.485 16.99 6.485 18 8 C14.33333333 8 10.66666667 8 7 8 C8.65 8.33 10.3 8.66 12 9 C12.33 9.99 12.66 10.98 13 12 C12.195625 12.12375 11.39125 12.2475 10.5625 12.375 C9.716875 12.58125 8.87125 12.7875 8 13 C7.67 13.66 7.34 14.32 7 15 C3.9375 15.625 3.9375 15.625 1 16 C1 14.68 1 13.36 1 12 C1.99 11.67 2.98 11.34 4 11 C4 10.34 4 9.68 4 9 C3.01 9 2.02 9 1 9 C1 6.69 1 4.38 1 2 C0.34 1.67 -0.32 1.34 -1 1 C-0.67 0.67 -0.34 0.34 0 0 Z " fill="#26B06D" transform="translate(156,71)"/>
<path d="M0 0 C0.66 0.33 1.32 0.66 2 1 C2.625 4.0625 2.625 4.0625 3 7 C4.155 6.9175 5.31 6.835 6.5 6.75 C12.55986578 6.75 17.06604644 9.2594418 21.5 13.25 C21.995 13.8275 22.49 14.405 23 15 C22.67 15.66 22.34 16.32 22 17 C21.4225 16.525625 20.845 16.05125 20.25 15.5625 C18.07417916 14.0515133 16.57397552 13.45963849 14 13 C14 12.34 14 11.68 14 11 C12.62714844 11.01740234 12.62714844 11.01740234 11.2265625 11.03515625 C9.44378906 11.04869141 9.44378906 11.04869141 7.625 11.0625 C6.44164062 11.07410156 5.25828125 11.08570313 4.0390625 11.09765625 C1 11 1 11 -1 10 C-1.125 3.375 -1.125 3.375 0 0 Z " fill="#1FA866" transform="translate(144,25)"/>
<path d="M0 0 C0.66 0.33 1.32 0.66 2 1 C2.0578304 5.45827926 2.09353855 9.9164628 2.125 14.375 C2.14175781 15.64601563 2.15851563 16.91703125 2.17578125 18.2265625 C2.18222656 19.43828125 2.18867188 20.65 2.1953125 21.8984375 C2.20578613 23.01911621 2.21625977 24.13979492 2.22705078 25.29443359 C2 28 2 28 0 30 C-2.125 29.625 -2.125 29.625 -4 29 C-4 28.34 -4 27.68 -4 27 C-3.01 27 -2.02 27 -1 27 C-1.00523682 26.21761963 -1.01047363 25.43523926 -1.01586914 24.62915039 C-1.03657106 21.10694167 -1.04963838 17.5847457 -1.0625 14.0625 C-1.07087891 12.83080078 -1.07925781 11.59910156 -1.08789062 10.33007812 C-1.09111328 9.16025391 -1.09433594 7.99042969 -1.09765625 6.78515625 C-1.10289307 5.70113525 -1.10812988 4.61711426 -1.11352539 3.50024414 C-1 1 -1 1 0 0 Z " fill="#33A970" transform="translate(205,37)"/>
<path d="M0 0 C0.99 0.33 1.98 0.66 3 1 C3.625 2.9609375 3.625 2.9609375 4 5.375 C4.54785208 8.8789706 5.06766327 10.85421948 8 13 C10.33297433 13.04092937 12.66705225 13.04241723 15 13 C15.66 13.66 16.32 14.32 17 15 C13.84017111 16.57991444 11.49944139 16.34420735 8 16 C5.3925794 14.55480176 3.32602379 12.89879493 1 11 C0.67 11.99 0.34 12.98 0 14 C-0.66 13.67 -1.32 13.34 -2 13 C-2 12.01 -2 11.02 -2 10 C-3.98 10 -5.96 10 -8 10 C-8 9.67 -8 9.34 -8 9 C-6.02 8.67 -4.04 8.34 -2 8 C-1.855625 7.4225 -1.71125 6.845 -1.5625 6.25 C-1.04166667 4.16666667 -0.52083333 2.08333333 0 0 Z " fill="#2FB676" transform="translate(136,82)"/>
<path d="M0 0 C2.31 0 4.62 0 7 0 C7.33 0.99 7.66 1.98 8 3 C6.68 3 5.36 3 4 3 C4 3.66 4 4.32 4 5 C3.34 5 2.68 5 2 5 C2 8.63 2 12.26 2 16 C0.68 16 -0.64 16 -2 16 C-2.33 11.38 -2.66 6.76 -3 2 C-2.01 2 -1.02 2 0 2 C0 1.34 0 0.68 0 0 Z " fill="#02A75A" transform="translate(94,78)"/>
<path d="M0 0 C0.33 0 0.66 0 1 0 C1.02473065 5.62336914 1.04287459 11.24670657 1.05493164 16.87011719 C1.05995841 18.78288321 1.06678077 20.6956454 1.07543945 22.60839844 C1.08757748 25.3587336 1.0932449 28.10901793 1.09765625 30.859375 C1.10281754 31.71368103 1.10797882 32.56798706 1.11329651 33.44818115 C1.11337204 34.24870911 1.11344757 35.04923706 1.11352539 35.87402344 C1.115746 36.57573669 1.11796661 37.27744995 1.12025452 38.00042725 C0.9936281 40.10595088 0.57320021 41.97407628 0 44 C-1.32 43.67 -2.64 43.34 -4 43 C-3.34 43 -2.68 43 -2 43 C-2.54708727 40.46255685 -2.54708727 40.46255685 -4 38 C-7.05272465 37.10169161 -7.05272465 37.10169161 -10 37 C-10 36.34 -10 35.68 -10 35 C-10.99 34.67 -11.98 34.34 -13 34 C-7.46379322 33.67434078 -6.02400987 33.98559408 -1 37 C-0.67 24.79 -0.34 12.58 0 0 Z " fill="#32C27B" transform="translate(134,22)"/>
<path d="M0 0 C2.475 0.99 2.475 0.99 5 2 C5.02578125 2.96421875 5.0515625 3.9284375 5.078125 4.921875 C5.13484375 6.18515625 5.1915625 7.4484375 5.25 8.75 C5.29640625 10.00296875 5.3428125 11.2559375 5.390625 12.546875 C6.07150347 16.40518636 6.98126522 17.60916205 10 20 C9.67 20.99 9.34 21.98 9 23 C7.35 21.35 5.7 19.7 4 18 C3.67 19.65 3.34 21.3 3 23 C2.67 23 2.34 23 2 23 C2 17.72 2 12.44 2 7 C1.01 7.495 1.01 7.495 0 8 C0.33 6.02 0.66 4.04 1 2 C0.34 1.67 -0.32 1.34 -1 1 C-0.67 0.67 -0.34 0.34 0 0 Z " fill="#14A45E" transform="translate(71,42)"/>
<path d="M0 0 C0.66 0 1.32 0 2 0 C2 4.95 2 9.9 2 15 C0.02 15 -1.96 15 -4 15 C-4 10.71 -4 6.42 -4 2 C-3.01 2 -2.02 2 -1 2 C-0.67 1.34 -0.34 0.68 0 0 Z " fill="#25B070" transform="translate(80,77)"/>
<path d="M0 0 C0.66 0 1.32 0 2 0 C4.32590854 3.63423209 4.16265833 6.77088331 4 11 C4.66 10.67 5.32 10.34 6 10 C13.22330097 9.53398058 13.22330097 9.53398058 16.5 11.5 C16.995 11.995 17.49 12.49 18 13 C15.81459904 13.70245031 14.43166412 14.11907976 12.1875 13.5 C8.40623646 12.63571119 4.45734941 13.2713253 1 15 C1.02320313 14.32453125 1.04640625 13.6490625 1.0703125 12.953125 C1.09738281 11.61507812 1.09738281 11.61507812 1.125 10.25 C1.15980469 8.92742188 1.15980469 8.92742188 1.1953125 7.578125 C0.99139502 4.8864142 0.36551721 3.30095026 -1 1 C-0.67 0.67 -0.34 0.34 0 0 Z " fill="#40AF76" transform="translate(46,22)"/>
<path d="M0 0 C0.66 0.99 1.32 1.98 2 3 C-1 3 -1 3 -4 2 C-4 3.65 -4 5.3 -4 7 C-4.66 6.01 -5.32 5.02 -6 4 C-9.56769552 3.26393501 -9.56769552 3.26393501 -13 3 C-13 3.66 -13 4.32 -13 5 C-14.32 5 -15.64 5 -17 5 C-17 9.62 -17 14.24 -17 19 C-17.99 18.01 -18.98 17.02 -20 16 C-19.34 15.67 -18.68 15.34 -18 15 C-18.06960937 14.25234375 -18.13921875 13.5046875 -18.2109375 12.734375 C-18.64851586 4.77461617 -18.64851586 4.77461617 -15.75 1.3125 C-10.56761857 -0.5013335 -5.43727052 -0.90349854 0 0 Z " fill="#2CA66A" transform="translate(107,75)"/>
<path d="M0 0 C3.29714793 0.32971479 4.6226839 0.6226839 7 3 C7.125 5.625 7.125 5.625 7 8 C6.01 8.33 5.02 8.66 4 9 C4 9.66 4 10.32 4 11 C2.68 10.67 1.36 10.34 0 10 C-0.38922918 8.71254964 -0.76098036 7.41980403 -1.125 6.125 C-1.43824219 5.04605469 -1.43824219 5.04605469 -1.7578125 3.9453125 C-1.83773437 3.30335937 -1.91765625 2.66140625 -2 2 C-1.34 1.34 -0.68 0.68 0 0 Z " fill="#0BA55D" transform="translate(88,23)"/>
<path d="M0 0 C0.78375 0.04125 1.5675 0.0825 2.375 0.125 C3.68723496 4.06170488 2.61796256 6.24988144 1.375 10.125 C-3.375 9.375 -3.375 9.375 -5.625 7.125 C-5.20813063 2.95630627 -4.65455455 0.22164545 0 0 Z " fill="#10A25D" transform="translate(77.625,22.875)"/>
<path d="M0 0 C1.32 0 2.64 0 4 0 C4.16789126 2.43742131 4.33436133 4.87492546 4.5 7.3125 C4.54769531 8.00279297 4.59539062 8.69308594 4.64453125 9.40429688 C4.83879489 12.27662359 5 15.12013788 5 18 C2.5543241 16.34916877 1.42418175 15.52854725 0 13 C-0.44894828 8.63727911 -0.28797383 4.37080273 0 0 Z " fill="#40BA82" transform="translate(62,48)"/>
<path d="M0 0 C1.32 0.33 2.64 0.66 4 1 C5.66519519 1.34060811 7.33157466 1.67558396 9 2 C8.34 3.32 7.68 4.64 7 6 C5.02 5.01 3.04 4.02 1 3 C1 12.57 1 22.14 1 32 C1.99 32.33 2.98 32.66 4 33 C4 33.66 4 34.32 4 35 C2.68 35 1.36 35 0 35 C0 23.45 0 11.9 0 0 Z " fill="#1AAF68" transform="translate(170,32)"/>
<path d="M0 0 C0.66 0.66 1.32 1.32 2 2 C1.67 2.99 1.34 3.98 1 5 C1.08573227 7.06587115 1.23833535 9.12946525 1.4375 11.1875 C1.53933594 12.27417969 1.64117187 13.36085938 1.74609375 14.48046875 C1.82988281 15.31191406 1.91367188 16.14335938 2 17 C2.66 17 3.32 17 4 17 C5.38232443 18.62626404 6.71937515 20.2925002 8 22 C7.01 22.33 6.02 22.66 5 23 C-1.87683143 16.30413782 -1.87683143 16.30413782 -2.265625 12.1875 C-2.25789062 10.6096875 -2.25789062 10.6096875 -2.25 9 C-2.25515625 7.948125 -2.2603125 6.89625 -2.265625 5.8125 C-2 3 -2 3 0 0 Z " fill="#2BA568" transform="translate(6,41)"/>
<path d="M0 0 C2 2 2 2 2.125 5.125 C2.08375 6.07375 2.0425 7.0225 2 8 C5.3 8 8.6 8 12 8 C12 8.99 12 9.98 12 11 C7.71 11 3.42 11 -1 11 C-1.125 2.25 -1.125 2.25 0 0 Z " fill="#21B06E" transform="translate(116,24)"/>
<path d="M0 0 C0.66 0.33 1.32 0.66 2 1 C2.05380578 3.79192205 2.09357669 6.5828141 2.125 9.375 C2.15013672 10.56609375 2.15013672 10.56609375 2.17578125 11.78125 C2.19335473 13.85492015 2.10335168 15.92883241 2 18 C1.34 18.66 0.68 19.32 0 20 C-2.5 19.8125 -2.5 19.8125 -5 19 C-5.66 18.01 -6.32 17.02 -7 16 C-4 16 -4 16 0 17 C0 11.39 0 5.78 0 0 Z " fill="#3CBE7F" transform="translate(167,47)"/>
<path d="M0 0 C0.99 0 1.98 0 3 0 C3.2475 1.093125 3.495 2.18625 3.75 3.3125 C5.08239223 7.24305708 5.49778706 8.05958472 9 10 C12.0477445 10.36157879 12.0477445 10.36157879 15.25 10.1875 C16.32765625 10.16042969 17.4053125 10.13335937 18.515625 10.10546875 C19.33546875 10.07066406 20.1553125 10.03585938 21 10 C21.33 10.66 21.66 11.32 22 12 C19.58303128 12.05411124 17.16728213 12.09372278 14.75 12.125 C14.06808594 12.14175781 13.38617188 12.15851562 12.68359375 12.17578125 C8.9391765 12.21213482 6.17647273 12.07944349 3 10 C3 9.34 3 8.68 3 8 C2.34 8 1.68 8 1 8 C-0.35439668 5.29120665 -0.06501451 2.99066732 0 0 Z " fill="#18A563" transform="translate(81,48)"/>
<path d="M0 0 C1.4540625 0.0309375 1.4540625 0.0309375 2.9375 0.0625 C2.27234375 0.4440625 1.6071875 0.825625 0.921875 1.21875 C-1.35003613 2.90692907 -1.35003613 2.90692907 -1.234375 5.65625 C-1.09515625 6.6153125 -0.9559375 7.574375 -0.8125 8.5625 C-0.68359375 9.5215625 -0.5546875 10.480625 -0.421875 11.46875 C-0.30328125 12.3246875 -0.1846875 13.180625 -0.0625 14.0625 C-0.0625 15.0525 -0.0625 16.0425 -0.0625 17.0625 C-2.83952546 14.80034711 -3.97252237 13.69234338 -4.48828125 10.08203125 C-4.45089844 9.02371094 -4.41351563 7.96539062 -4.375 6.875 C-4.35050781 5.80894531 -4.32601562 4.74289063 -4.30078125 3.64453125 C-3.9558173 -0.09352076 -3.82872276 0.0781372 0 0 Z " fill="#35B177" transform="translate(119.0625,39.9375)"/>
<path d="M0 0 C0.99 0.66 1.98 1.32 3 2 C2.85957123 3.64630328 2.71250671 5.29204179 2.5625 6.9375 C2.48128906 7.85402344 2.40007813 8.77054688 2.31640625 9.71484375 C2 12 2 12 1 13 C-0.64340867 13.09854655 -2.2911461 13.12972411 -3.9375 13.125 C-4.83339844 13.12757812 -5.72929687 13.13015625 -6.65234375 13.1328125 C-9 13 -9 13 -11 12 C-10.67 11.01 -10.34 10.02 -10 9 C-6.37 9.33 -2.74 9.66 1 10 C0.67 6.7 0.34 3.4 0 0 Z " fill="#3DBA7D" transform="translate(27,46)"/>
<path d="M0 0 C0.66 0 1.32 0 2 0 C2.05383848 2.45862401 2.09359038 4.9160755 2.125 7.375 C2.14175781 8.07367188 2.15851563 8.77234375 2.17578125 9.4921875 C2.19344267 11.32897486 2.10303261 13.16601963 2 15 C1.34 15.66 0.68 16.32 0 17 C-1.49341703 14.01316593 -1.13175178 11.25600226 -1.125 7.9375 C-1.12757813 6.66777344 -1.13015625 5.39804687 -1.1328125 4.08984375 C-1 1 -1 1 0 0 Z " fill="#29B270" transform="translate(159,46)"/>
<path d="M0 0 C2.5 1.75 2.5 1.75 5 4 C5 5.32 5 6.64 5 8 C4.34 8 3.68 8 3 8 C3 8.66 3 9.32 3 10 C0.03 9.505 0.03 9.505 -3 9 C-3 7 -3 7 -1.5 5.375 C-1.005 4.92125 -0.51 4.4675 0 4 C-0.66 4 -1.32 4 -2 4 C-2.33 4.66 -2.66 5.32 -3 6 C-3 3 -3 3 -1.5 1.3125 C-0.7575 0.6628125 -0.7575 0.6628125 0 0 Z " fill="#2EB072" transform="translate(202,20)"/>
<path d="M0 0 C5 1 5 1 7 3 C7.66 2.67 8.32 2.34 9 2 C9 3.65 9 5.3 9 7 C8.21625 6.505 7.4325 6.01 6.625 5.5 C4.21447673 3.83462035 4.21447673 3.83462035 2 4 C1.67 8.29 1.34 12.58 1 17 C0.34 16.67 -0.32 16.34 -1 16 C-0.67 10.72 -0.34 5.44 0 0 Z " fill="#1DB66E" transform="translate(30,20)"/>
<path d="M0 0 C0.33 0 0.66 0 1 0 C1.06058594 0.74765625 1.12117188 1.4953125 1.18359375 2.265625 C1.30927734 3.74289063 1.30927734 3.74289063 1.4375 5.25 C1.51871094 6.22453125 1.59992188 7.1990625 1.68359375 8.203125 C1.92633237 10.93905092 1.92633237 10.93905092 2.59765625 13.296875 C2.79681641 14.13992187 2.79681641 14.13992187 3 15 C2 16 2 16 -1.81640625 16.09765625 C-3.39846682 16.09098089 -4.98051159 16.07901875 -6.5625 16.0625 C-7.36880859 16.05798828 -8.17511719 16.05347656 -9.00585938 16.04882812 C-11.00393756 16.03700518 -13.00197783 16.01906914 -15 16 C-15 15.67 -15 15.34 -15 15 C-10.38 15 -5.76 15 -1 15 C-0.67 10.05 -0.34 5.1 0 0 Z " fill="#2EB576" transform="translate(105,50)"/>
<path d="M0 0 C1.76923828 0.01353516 1.76923828 0.01353516 3.57421875 0.02734375 C4.47785156 0.03894531 5.38148438 0.05054687 6.3125 0.0625 C5.9825 1.3825 5.6525 2.7025 5.3125 4.0625 C3.37433265 3.9483134 1.43694901 3.82076577 -0.5 3.6875 C-1.57894531 3.61789063 -2.65789062 3.54828125 -3.76953125 3.4765625 C-6.6875 3.0625 -6.6875 3.0625 -9.6875 1.0625 C-6.26517028 -0.07827657 -3.60076783 -0.03565117 0 0 Z " fill="#31B377" transform="translate(188.6875,31.9375)"/>
<path d="M0 0 C-3.75 3 -3.75 3 -6 3 C-6.07427838 6.34252724 -6.06546953 8.8035914 -5 12 C-7.31 11.34 -9.62 10.68 -12 10 C-10.35120321 3.40481284 -7.259327 -0.82963737 0 0 Z " fill="#5BBA8C" transform="translate(105,23)"/>
<path d="M0 0 C2.875 0.3125 2.875 0.3125 6 1 C6.66 1.99 7.32 2.98 8 4 C4.79604584 4 2.90600261 3.25664978 0 2 C0 4.64 0 7.28 0 10 C-0.99 10 -1.98 10 -3 10 C-3.75 7.8125 -3.75 7.8125 -4 5 C-2.0625 2.1875 -2.0625 2.1875 0 0 Z " fill="#23AF6E" transform="translate(108,20)"/>
<path d="M0 0 C1.32 0.33 2.64 0.66 4 1 C4.33 3.97 4.66 6.94 5 10 C4.34 10 3.68 10 3 10 C3 9.01 3 8.02 3 7 C1.02 7 -0.96 7 -3 7 C-2.67 5.35 -2.34 3.7 -2 2 C-1.34 2 -0.68 2 0 2 C0 1.34 0 0.68 0 0 Z " fill="#0D9A55" transform="translate(101,24)"/>
<path d="M0 0 C0.0810206 2.10353495 0.13919907 4.20795952 0.1875 6.3125 C0.22230469 7.48425781 0.25710937 8.65601563 0.29296875 9.86328125 C0 13 0 13 -1.51171875 14.91796875 C-2.00285156 15.27503906 -2.49398437 15.63210937 -3 16 C-3.33 15.34 -3.66 14.68 -4 14 C-3.34 14 -2.68 14 -2 14 C-2.33 13.34 -2.66 12.68 -3 12 C-3.07033769 10.12620395 -3.0843022 8.24998898 -3.0625 6.375 C-3.05347656 5.37210938 -3.04445312 4.36921875 -3.03515625 3.3359375 C-3.02355469 2.56507812 -3.01195312 1.79421875 -3 1 C-1 0 -1 0 0 0 Z " fill="#83D8B3" transform="translate(146,47)"/>
<path d="M0 0 C0.33 0.66 0.66 1.32 1 2 C1.66 2.33 2.32 2.66 3 3 C3.66 3.66 4.32 4.32 5 5 C6.155 5 7.31 5 8.5 5 C9.655 5 10.81 5 12 5 C12.66 5.66 13.32 6.32 14 7 C10.79745853 8.60127074 8.54685436 8.40701607 5 8 C2.38830837 6.26393366 0.19043885 4.23704394 -2 2 C-1.34 1.34 -0.68 0.68 0 0 Z " fill="#2DAB6C" transform="translate(121,90)"/>
<path d="M0 0 C0.99 0 1.98 0 3 0 C4.0625 1.875 4.0625 1.875 5 4 C4.67 4.66 4.34 5.32 4 6 C4 7.32 4 8.64 4 10 C3.67 10.66 3.34 11.32 3 12 C2.34 12 1.68 12 1 12 C-0.41404314 8.19975907 -1.34892324 5.07077118 -1 1 C-0.67 0.67 -0.34 0.34 0 0 Z " fill="#38B679" transform="translate(59,78)"/>
<path d="M0 0 C0.33 0 0.66 0 1 0 C1 10.56 1 21.12 1 32 C0.67 32 0.34 32 0 32 C-0.06058594 30.73542969 -0.12117187 29.47085938 -0.18359375 28.16796875 C-0.26800904 26.50780129 -0.35265655 24.84764563 -0.4375 23.1875 C-0.47681641 22.35412109 -0.51613281 21.52074219 -0.55664062 20.66210938 C-0.59853516 19.85966797 -0.64042969 19.05722656 -0.68359375 18.23046875 C-0.73858032 17.12288208 -0.73858032 17.12288208 -0.79467773 15.99291992 C-0.94842141 13.792505 -0.94842141 13.792505 -2 11 C-1.34 11 -0.68 11 0 11 C0 7.37 0 3.74 0 0 Z " fill="#068F49" transform="translate(169,34)"/>
<path d="M0 0 C0 0.66 0 1.32 0 2 C0.66 1.34 1.32 0.68 2 0 C3.32 0 4.64 0 6 0 C6 0.66 6 1.32 6 2 C6.66 2 7.32 2 8 2 C7.67 2.99 7.34 3.98 7 5 C5.7625 4.79375 4.525 4.5875 3.25 4.375 C-0.11909835 3.93892876 -2.12841921 3.96596361 -5 6 C-5 3 -5 3 -3.625 1.3125 C-2 0 -2 0 0 0 Z " fill="#27AA6B" transform="translate(20,40)"/>
<path d="M0 0 C0 3.96 0 7.92 0 12 C-0.99 12 -1.98 12 -3 12 C-3 8.37 -3 4.74 -3 1 C-1 0 -1 0 0 0 Z " fill="#9CE5C4" transform="translate(180,48)"/>
<path d="M0 0 C0.66 0.33 1.32 0.66 2 1 C2.625 4.0625 2.625 4.0625 3 7 C5.64 7 8.28 7 11 7 C11 7.33 11 7.66 11 8 C8.69 8 6.38 8 4 8 C3.67 8.66 3.34 9.32 3 10 C1.68 10 0.36 10 -1 10 C-1.125 3.375 -1.125 3.375 0 0 Z " fill="#78D4AA" transform="translate(144,25)"/>
<path d="M0 0 C1.32 0 2.64 0 4 0 C4 0.66 4 1.32 4 2 C3.34 2 2.68 2 2 2 C2 5.3 2 8.6 2 12 C0.02 12.99 0.02 12.99 -2 14 C-2 13.01 -2 12.02 -2 11 C-1.34 11 -0.68 11 0 11 C0 7.37 0 3.74 0 0 Z " fill="#CCE8DE" transform="translate(98,84)"/>
<path d="M0 0 C1.65 0 3.3 0 5 0 C5 2.31 5 4.62 5 7 C3.35 6.67 1.7 6.34 0 6 C0 4.02 0 2.04 0 0 Z " fill="#8AD7B3" transform="translate(143,83)"/>
<path d="M0 0 C1.30062431 3.81516464 0.89369853 7.27561763 0.5625 11.25 C0.46066406 12.51328125 0.35882813 13.7765625 0.25390625 15.078125 C0.17011719 16.04234375 0.08632812 17.0065625 0 18 C-1.65 18.33 -3.3 18.66 -5 19 C-5.33 18.34 -5.66 17.68 -6 17 C-4.35 16.67 -2.7 16.34 -1 16 C-1.01160156 14.92878906 -1.02320312 13.85757813 -1.03515625 12.75390625 C-1.04453299 11.35677257 -1.05363331 9.95963701 -1.0625 8.5625 C-1.07506836 7.50192383 -1.07506836 7.50192383 -1.08789062 6.41992188 C-1.09653588 4.61306441 -1.05220011 2.80612397 -1 1 C-0.67 0.67 -0.34 0.34 0 0 Z " fill="#139256" transform="translate(73,48)"/>
<path d="M0 0 C0.99 0 1.98 0 3 0 C3 1.32 3 2.64 3 4 C2.34 4 1.68 4 1 4 C0.7525 4.9075 0.505 5.815 0.25 6.75 C-1.03981342 10.10351489 -2.31971042 11.67708236 -5 14 C-5 10.80389448 -4.45328458 9.58282374 -3 6.8125 C-2.62875 6.09707031 -2.2575 5.38164063 -1.875 4.64453125 C-1.441875 3.83048828 -1.441875 3.83048828 -1 3 C-0.34 3 0.32 3 1 3 C0.67 2.01 0.34 1.02 0 0 Z " fill="#3AB579" transform="translate(67,86)"/>
<path d="M0 0 C-0.33 1.32 -0.66 2.64 -1 4 C-2.32 4 -3.64 4 -5 4 C-5 8.62 -5 13.24 -5 18 C-5.99 17.01 -6.98 16.02 -8 15 C-7.34 14.67 -6.68 14.34 -6 14 C-6.04640625 13.24074219 -6.0928125 12.48148438 -6.140625 11.69921875 C-6.17671875 10.70535156 -6.2128125 9.71148437 -6.25 8.6875 C-6.29640625 7.70136719 -6.3428125 6.71523437 -6.390625 5.69921875 C-6 3 -6 3 -4.109375 1.14453125 C-2 0 -2 0 0 0 Z " fill="#48BE87" transform="translate(95,76)"/>
<path d="M0 0 C4.57771878 1.1444297 5.5120866 2.12991249 8 6 C7.67 6.99 7.34 7.98 7 9 C5.35 7.35 3.7 5.7 2 4 C1.67 5.65 1.34 7.3 1 9 C0.67 9 0.34 9 0 9 C0 6.03 0 3.06 0 0 Z " fill="#43BB82" transform="translate(73,56)"/>
<path d="M0 0 C3 3.75 3 3.75 3 6 C2.38125 6.28875 1.7625 6.5775 1.125 6.875 C-1.13325765 7.93720042 -1.13325765 7.93720042 -3 10 C-3.66 8.35 -4.32 6.7 -5 5 C-4.360625 4.731875 -3.72125 4.46375 -3.0625 4.1875 C-0.66868314 3.11332248 -0.66868314 3.11332248 0 0 Z " fill="#B7EBD5" transform="translate(54,89)"/>
<path d="M0 0 C0.66 0.33 1.32 0.66 2 1 C2 4.3 2 7.6 2 11 C1.01 10.67 0.02 10.34 -1 10 C-1.02689216 8.52093108 -1.04634621 7.04172517 -1.0625 5.5625 C-1.07410156 4.73878906 -1.08570312 3.91507812 -1.09765625 3.06640625 C-1 1 -1 1 0 0 Z " fill="#45B581" transform="translate(77,78)"/>
<path d="M0 0 C0.33 0 0.66 0 1 0 C1.24875561 2.26877104 1.47339246 4.54019735 1.6875 6.8125 C1.81511719 8.07707031 1.94273438 9.34164062 2.07421875 10.64453125 C2 14 2 14 0.51953125 15.94921875 C0.01808594 16.29597656 -0.48335937 16.64273438 -1 17 C-1.66 16.67 -2.32 16.34 -3 16 C-3 15.34 -3 14.68 -3 14 C-2.34 14 -1.68 14 -1 14 C-0.67 9.38 -0.34 4.76 0 0 Z " fill="#33B579" transform="translate(47,48)"/>
<path d="M0 0 C0.66 0.33 1.32 0.66 2 1 C2.63019694 11.15317287 2.63019694 11.15317287 0 14.6875 C-0.66 15.120625 -1.32 15.55375 -2 16 C-2 13.16032769 -1.59732819 10.76264289 -1 8 C-0.67 8 -0.34 8 0 8 C0.33 6.02 0.66 4.04 1 2 C0.34 1.67 -0.32 1.34 -1 1 C-0.67 0.67 -0.34 0.34 0 0 Z " fill="#46BE8A" transform="translate(174,80)"/>
<path d="M0 0 C0.99 0 1.98 0 3 0 C3 0.66 3 1.32 3 2 C3.66 2 4.32 2 5 2 C5 1.34 5 0.68 5 0 C7.375 0.3125 7.375 0.3125 10 1 C10.66 1.99 11.32 2.98 12 4 C9.20215289 4 7.0209322 3.62804225 4.3125 3 C3.10013672 2.7215625 3.10013672 2.7215625 1.86328125 2.4375 C1.24839844 2.293125 0.63351563 2.14875 0 2 C0 1.34 0 0.68 0 0 Z " fill="#349D6B" transform="translate(162,75)"/>
<path d="M0 0 C4.75 0.75 4.75 0.75 7 3 C7.125 5.625 7.125 5.625 7 8 C5 7 5 7 4 4 C2.35 3.67 0.7 3.34 -1 3 C-0.67 2.01 -0.34 1.02 0 0 Z " fill="#399E6D" transform="translate(88,23)"/>
<path d="M0 0 C0.99 0 1.98 0 3 0 C3.66 2.64 4.32 5.28 5 8 C4.01 8.495 4.01 8.495 3 9 C1.5 7.875 1.5 7.875 0 6 C-0.1875 2.8125 -0.1875 2.8125 0 0 Z " fill="#55C592" transform="translate(81,48)"/>
<path d="M0 0 C3.057952 1.73559438 5.63379989 3.38472619 8 6 C7.67 6.66 7.34 7.32 7 8 C6.4225 7.525625 5.845 7.05125 5.25 6.5625 C3.07417916 5.0515133 1.57397552 4.45963849 -1 4 C-0.67 2.68 -0.34 1.36 0 0 Z " fill="#47B682" transform="translate(159,34)"/>
<path d="M0 0 C2.38564077 0.57584432 4.66682784 1.22227595 7 2 C7 2.66 7 3.32 7 4 C8.65 3.34 10.3 2.68 12 2 C12 2.99 12 3.98 12 5 C8.8125 5.3125 8.8125 5.3125 5 5 C2.0625 2.5 2.0625 2.5 0 0 Z " fill="#34B275" transform="translate(36,93)"/>
<path d="M0 0 C0.66 0.33 1.32 0.66 2 1 C1.01 2.485 1.01 2.485 0 4 C0.33 4.99 0.66 5.98 1 7 C0.5625 9.1875 0.5625 9.1875 0 11 C-0.66 10.67 -1.32 10.34 -2 10 C-2.8125 7.1875 -2.8125 7.1875 -3 4 C-1.5625 1.625 -1.5625 1.625 0 0 Z " fill="#4FBB86" transform="translate(38,76)"/>
<path d="M0 0 C0.99 0 1.98 0 3 0 C3.33 2.64 3.66 5.28 4 8 C2.68 8 1.36 8 0 8 C0 5.36 0 2.72 0 0 Z " fill="#29A56B" transform="translate(12,46)"/>
<path d="M0 0 C0.78375 0.04125 1.5675 0.0825 2.375 0.125 C1.385 0.785 0.395 1.445 -0.625 2.125 C-1.68746527 4.09252828 -2.69637808 6.09087579 -3.625 8.125 C-4.285 7.795 -4.945 7.465 -5.625 7.125 C-4.53409091 0.21590909 -4.53409091 0.21590909 0 0 Z " fill="#51B88A" transform="translate(77.625,22.875)"/>
<path d="M0 0 C0.556875 0.144375 1.11375 0.28875 1.6875 0.4375 C4.11384195 1.02769128 6.54906345 1.523429 9 2 C8.34 3.32 7.68 4.64 7 6 C4.69 5.01 2.38 4.02 0 3 C0 2.01 0 1.02 0 0 Z " fill="#39B97B" transform="translate(170,32)"/>
<path d="M0 0 C0.66 0 1.32 0 2 0 C2 0.66 2 1.32 2 2 C2.99 1.67 3.98 1.34 5 1 C5 1.99 5 2.98 5 4 C4.34 3.67 3.68 3.34 3 3 C3 3.66 3 4.32 3 5 C1.35 4.67 -0.3 4.34 -2 4 C-2 3.34 -2 2.68 -2 2 C-1.34 2 -0.68 2 0 2 C0 1.34 0 0.68 0 0 Z " fill="#3CB97D" transform="translate(126,80)"/>
<path d="M0 0 C2 2 2 2 2.125 5.125 C2.08375 6.07375 2.0425 7.0225 2 8 C5.3 8 8.6 8 12 8 C12 8.33 12 8.66 12 9 C8.37 9 4.74 9 1 9 C1 7.35 1 5.7 1 4 C0.34 4 -0.32 4 -1 4 C-0.67 2.68 -0.34 1.36 0 0 Z " fill="#4DC98F" transform="translate(116,24)"/>
<path d="M0 0 C3.40667322 0.44824648 5.07914607 1.05276405 8 3 C8.33 2.34 8.66 1.68 9 1 C9 1.99 9 2.98 9 4 C2.47692308 4.36923077 2.47692308 4.36923077 0.0625 2.5 C-0.4634375 1.7575 -0.4634375 1.7575 -1 1 C-0.67 0.67 -0.34 0.34 0 0 Z " fill="#34AC71" transform="translate(161,94)"/>
<path d="M0 0 C0 1.65 0 3.3 0 5 C-0.99 5 -1.98 5 -3 5 C-3 4.01 -3 3.02 -3 2 C-4.98 2 -6.96 2 -9 2 C-9 1.67 -9 1.34 -9 1 C-5.94152152 0.45627049 -3.11227195 0 0 0 Z " fill="#26B270" transform="translate(137,90)"/>
<path d="M0 0 C1.65 0 3.3 0 5 0 C5 1.32 5 2.64 5 4 C3.68 4.33 2.36 4.66 1 5 C0.67 3.35 0.34 1.7 0 0 Z " fill="#21B06D" transform="translate(164,87)"/>
<path d="M0 0 C2.89932357 2.39509338 3.50168276 4.31245243 4 8 C3.01 7.67 2.02 7.34 1 7 C0.67 7.66 0.34 8.32 0 9 C-0.84454356 5.62182575 -1.10844919 3.32534757 0 0 Z " fill="#35B879" transform="translate(109,78)"/>
<path d="M0 0 C0.598125 0.165 1.19625 0.33 1.8125 0.5 C4.11344336 1.1114124 4.11344336 1.1114124 7 1 C7 2.65 7 4.3 7 6 C6.236875 5.505 5.47375 5.01 4.6875 4.5 C2.07636249 2.75631692 2.07636249 2.75631692 -1 3 C-0.67 2.01 -0.34 1.02 0 0 Z " fill="#1FAD68" transform="translate(32,21)"/>
<path d="M0 0 C0.66 0.33 1.32 0.66 2 1 C2.625 3.5625 2.625 3.5625 3 6 C3.99 5.67 4.98 5.34 6 5 C5.34 6.32 4.68 7.64 4 9 C3.01 9 2.02 9 1 9 C1 6.69 1 4.38 1 2 C0.34 1.67 -0.32 1.34 -1 1 C-0.67 0.67 -0.34 0.34 0 0 Z " fill="#5EC697" transform="translate(156,71)"/>
<path d="M0 0 C0.66 0.33 1.32 0.66 2 1 C2 3 2 3 0.25 5.1875 C-0.4925 5.785625 -1.235 6.38375 -2 7 C-3.32 6.67 -4.64 6.34 -6 6 C-4.02 4.02 -2.04 2.04 0 0 Z " fill="#44B37F" transform="translate(80,35)"/>
<path d="M0 0 C-3.21451269 1.60725635 -6.43612536 1.05748185 -10 1 C-10.33 0.34 -10.66 -0.32 -11 -1 C-3.57142857 -2.42857143 -3.57142857 -2.42857143 0 0 Z " fill="#0E9350" transform="translate(136,90)"/>
<path d="M0 0 C2.375 -0.1875 2.375 -0.1875 5 0 C5.66 0.99 6.32 1.98 7 3 C4 3 4 3 1 2 C1 3.65 1 5.3 1 7 C0.67 7 0.34 7 0 7 C0 4.69 0 2.38 0 0 Z " fill="#45B57F" transform="translate(102,75)"/>
<path d="M0 0 C0.66 0 1.32 0 2 0 C2.1953125 6.0546875 2.1953125 6.0546875 2 8 C1.34 8.66 0.68 9.32 0 10 C-2.125 9.625 -2.125 9.625 -4 9 C-3.01 9 -2.02 9 -1 9 C-0.67 6.03 -0.34 3.06 0 0 Z " fill="#3AB476" transform="translate(80,24)"/>
<path d="M0 0 C2.475 0.495 2.475 0.495 5 1 C5 3.97 5 6.94 5 10 C3.68 10.33 2.36 10.66 1 11 C1.66 10.67 2.32 10.34 3 10 C3 7.36 3 4.72 3 2 C2.01 2 1.02 2 0 2 C0 1.34 0 0.68 0 0 Z " fill="#38C181" transform="translate(145,81)"/>
<path d="M0 0 C0.33 0.99 0.66 1.98 1 3 C-0.98 3 -2.96 3 -5 3 C-5.33 3.66 -5.66 4.32 -6 5 C-6 3.68 -6 2.36 -6 1 C-4 0 -4 0 0 0 Z " fill="#4BBF89" transform="translate(46,80)"/>
<path d="M0 0 C6.625 -0.25 6.625 -0.25 10 2 C7.69 2.33 5.38 2.66 3 3 C3 2.34 3 1.68 3 1 C2.01 0.67 1.02 0.34 0 0 Z " fill="#4EC38D" transform="translate(121,56)"/>
<path d="M0 0 C1.98 0 3.96 0 6 0 C6.33 1.32 6.66 2.64 7 4 C5.35 4 3.7 4 2 4 C1.34 2.68 0.68 1.36 0 0 Z " fill="#26B36F" transform="translate(98,31)"/>
<path d="M0 0 C7.38461538 -0.36923077 7.38461538 -0.36923077 10.5 1.5 C10.995 1.995 11.49 2.49 12 3 C10.68 3.33 9.36 3.66 8 4 C7.67 3.01 7.34 2.02 7 1 C4.69 1 2.38 1 0 1 C0 0.67 0 0.34 0 0 Z " fill="#44C286" transform="translate(52,32)"/>
<path d="M0 0 C1 3 1 3 -0.4375 6.1875 C-1.2109375 7.5796875 -1.2109375 7.5796875 -2 9 C-2.66 8.67 -3.32 8.34 -4 8 C-4 7.34 -4 6.68 -4 6 C-3.34 6 -2.68 6 -2 6 C-2 4.35 -2 2.7 -2 1 C-1.34 0.67 -0.68 0.34 0 0 Z " fill="#28B26F" transform="translate(55,84)"/>
<path d="M0 0 C0.99 0 1.98 0 3 0 C3 0.66 3 1.32 3 2 C3.66 2 4.32 2 5 2 C5 1.34 5 0.68 5 0 C5.99 0 6.98 0 8 0 C8 0.99 8 1.98 8 3 C2.25 3.125 2.25 3.125 0 2 C0 1.34 0 0.68 0 0 Z " fill="#319863" transform="translate(40,75)"/>
<path d="M0 0 C1.32 0.33 2.64 0.66 4 1 C4.33 3.31 4.66 5.62 5 8 C3.68 7.67 2.36 7.34 1 7 C1.66 7 2.32 7 3 7 C1.60240095 3.45481116 1.60240095 3.45481116 0 0 Z " fill="#2BB372" transform="translate(129,58)"/>
<path d="M0 0 C0.66 0 1.32 0 2 0 C3.38232443 1.62626404 4.71937515 3.2925002 6 5 C5.01 5.33 4.02 5.66 3 6 C2.01 5.34 1.02 4.68 0 4 C0 2.68 0 1.36 0 0 Z " fill="#25A969" transform="translate(8,58)"/>
<path d="M0 0 C0.99 0.33 1.98 0.66 3 1 C3.1875 3.375 3.1875 3.375 3 6 C2.01 6.66 1.02 7.32 0 8 C0.33 6.02 0.66 4.04 1 2 C0.34 1.67 -0.32 1.34 -1 1 C-0.67 0.67 -0.34 0.34 0 0 Z " fill="#43BF88" transform="translate(71,42)"/>
<path d="M0 0 C0.66 0.66 1.32 1.32 2 2 C1.67 2.99 1.34 3.98 1 5 C0.64763503 6.99673484 0.31165441 8.99650739 0 11 C-0.33 11 -0.66 11 -1 11 C-2.25 3.375 -2.25 3.375 0 0 Z " fill="#42BB7E" transform="translate(6,41)"/>
<path d="M0 0 C1.98 0 3.96 0 6 0 C5.67 0.99 5.34 1.98 5 3 C3.35 3.33 1.7 3.66 0 4 C0 2.68 0 1.36 0 0 Z " fill="#2BA167" transform="translate(52,40)"/>
<path d="M0 0 C1.9375 0.8125 1.9375 0.8125 4 2 C4.33 2.99 4.66 3.98 5 5 C2.69 4.34 0.38 3.68 -2 3 C-1.34 2.01 -0.68 1.02 0 0 Z " fill="#DCFCF4" transform="translate(95,30)"/>
<path d="M0 0 C2.25245881 2.68841859 3.88213958 4.64641875 5 8 C2.00675737 6.9024777 1.15389099 6.32317108 -0.25 3.375 C-0.4975 2.59125 -0.745 1.8075 -1 1 C-0.67 0.67 -0.34 0.34 0 0 Z " fill="#2AA86A" transform="translate(139,89)"/>
<path d="M0 0 C2.31 0.33 4.62 0.66 7 1 C6.67 1.66 6.34 2.32 6 3 C2.9375 3.625 2.9375 3.625 0 4 C0 2.68 0 1.36 0 0 Z " fill="#3DC182" transform="translate(157,83)"/>
<path d="M0 0 C2.64 0 5.28 0 8 0 C7.01 1.485 7.01 1.485 6 3 C4.68 3 3.36 3 2 3 C2 2.34 2 1.68 2 1 C1.34 0.67 0.68 0.34 0 0 Z " fill="#28A061" transform="translate(134,64)"/>
<path d="M0 0 C0.33 0.66 0.66 1.32 1 2 C2.32 1.67 3.64 1.34 5 1 C5.33 1.99 5.66 2.98 6 4 C2.58900832 4 -0.63088314 3.50854594 -4 3 C-2.68 2.67 -1.36 2.34 0 2 C0 1.34 0 0.68 0 0 Z " fill="#66D0A0" transform="translate(153,41)"/>
<path d="M0 0 C1.32 0.66 2.64 1.32 4 2 C1.66785852 3.20628008 -0.49642139 4.1654738 -3 5 C-1.125 1.125 -1.125 1.125 0 0 Z " fill="#DCFEF2" transform="translate(83,30)"/>
<path d="M0 0 C2.875 0.3125 2.875 0.3125 6 1 C6.66 1.99 7.32 2.98 8 4 C4.79604584 4 2.90600261 3.25664978 0 2 C0 1.34 0 0.68 0 0 Z " fill="#4CB685" transform="translate(108,20)"/>
</svg>
