<?xml version="1.0" encoding="UTF-8"?>
<svg version="1.1" xmlns="http://www.w3.org/2000/svg" width="106" height="106">
<path d="M0 0 C0.66 0.99 1.32 1.98 2 3 C-1.75 4.125 -1.75 4.125 -4 3 C-2.2945589 10.30048471 0.16198937 15.31742286 5 21 C19.68761651 38.3650466 19.68761651 38.3650466 19 51 C17.37962585 58.92064471 14.01251139 63.79577434 8 69 C7.34 69.78375 6.68 70.5675 6 71.375 C3.17575281 73.66970084 0.55750785 73.72634555 -3 74 C-3 74.33 -3 74.66 -3 75 C-4.58294782 75.05437607 -6.16644256 75.09296271 -7.75 75.125 C-8.63171875 75.14820312 -9.5134375 75.17140625 -10.421875 75.1953125 C-13.15800187 74.98803016 -14.64956382 74.36077884 -17 73 C-17.969375 72.566875 -18.93875 72.13375 -19.9375 71.6875 C-26.76183595 67.92715162 -31.55074348 61.34776956 -34 54 C-34.85732096 45.2675737 -34.26384295 38.20780413 -29 31 C-25.46176625 27.1674973 -22.25651163 23.94827938 -17 23 C-17.474375 23.94875 -17.94875 24.8975 -18.4375 25.875 C-21.53851664 33.24918791 -21.63579609 40.21238609 -19.00390625 47.7421875 C-16.08652965 54.30344693 -11.45467315 57.27718502 -5 60 C-1.43724028 54.11370133 -0.04348124 48.08313946 -1.625 41.33203125 C-3.76794286 35.14428373 -6.71476121 29.333624 -9.73046875 23.53125 C-12.59032822 17.82913019 -12.62056074 12.27180056 -12 6 C-9.54511394 -0.2128396 -6.33213983 -1.58303496 0 0 Z " fill="#E6A324" transform="translate(61,3)"/>
<path d="M0 0 C0.33 0.33 0.66 0.66 1 1 C1.33 0.34 1.66 -0.32 2 -1 C3.875 -0.6875 3.875 -0.6875 6 0 C6.66 0.99 7.32 1.98 8 3 C8.66 1.68 9.32 0.36 10 -1 C12.86724686 -0.42655063 13.8614515 -0.1385485 16 2 C16.66 1.01 17.32 0.02 18 -1 C18.721875 -0.814375 19.44375 -0.62875 20.1875 -0.4375 C23.12826973 0.01995307 25.14103058 -0.26483643 28 -1 C28.99 0.65 29.98 2.3 31 4 C31.66 2.35 32.32 0.7 33 -1 C33.62648437 -0.9278125 34.25296875 -0.855625 34.8984375 -0.78125 C35.71570312 -0.6884375 36.53296875 -0.595625 37.375 -0.5 C38.59316406 -0.36078125 38.59316406 -0.36078125 39.8359375 -0.21875 C42.20788658 0.02101381 43.68119408 0.11312468 45.9375 -0.6875 C46.618125 -0.790625 47.29875 -0.89375 48 -1 C49.75 0.4375 49.75 0.4375 51 2 C51.33 1.01 51.66 0.02 52 -1 C54.475 -0.505 54.475 -0.505 57 0 C57.495 1.98 57.495 1.98 58 4 C58.99 2.35 59.98 0.7 61 -1 C63.3125 -0.9375 63.3125 -0.9375 66 0 C67.8125 3.5625 67.8125 3.5625 69 7 C69.33 4.36 69.66 1.72 70 -1 C72.875 -0.6875 72.875 -0.6875 76 0 C76.99 1.485 76.99 1.485 78 3 C78.66 1.68 79.32 0.36 80 -1 C81.65 -1 83.3 -1 85 -1 C85 3.29 85 7.58 85 12 C82.72135417 12.22786458 80.44270833 12.45572917 78.1640625 12.68359375 C75.95727195 12.89090114 75.95727195 12.89090114 74 14 C72.45976004 14.06950541 70.91665012 14.08452357 69.375 14.0625 C68.14910156 14.04896484 68.14910156 14.04896484 66.8984375 14.03515625 C66.27195312 14.02355469 65.64546875 14.01195313 65 14 C64.505 13.01 64.505 13.01 64 12 C59.71 12.33 55.42 12.66 51 13 C50.505 11.515 50.505 11.515 50 10 C49.34 10.99 48.68 11.98 48 13 C47.37351563 12.9278125 46.74703125 12.855625 46.1015625 12.78125 C45.28429688 12.6884375 44.46703125 12.595625 43.625 12.5 C42.81289063 12.4071875 42.00078125 12.314375 41.1640625 12.21875 C38.80136056 11.97992092 37.17842308 11.95277036 34.875 12.5625 C32.21603873 12.96712454 30.60219857 12.85974354 28 12.4375 C24.35644705 11.89164937 22.38712434 12.48470753 19 14 C15.6875 14.125 15.6875 14.125 13 14 C12.67 13.01 12.34 12.02 12 11 C11.01 12.485 11.01 12.485 10 14 C7.375 14.1875 7.375 14.1875 5 14 C4.01 11.36 3.02 8.72 2 6 C2 8.31 2 10.62 2 13 C-1.04300316 14.52150158 -3.654085 14.23899393 -7 14 C-9.20914 10.68629 -9.22481553 9.6553979 -9.125 5.8125 C-9.10695313 4.91144531 -9.08890625 4.01039062 -9.0703125 3.08203125 C-9.04710937 2.39496094 -9.02390625 1.70789063 -9 1 C-5.52718042 -0.9326352 -3.86480758 -1.14899685 0 0 Z M21 2 C22 5 22 5 22 5 Z M44 2 C45 6 45 6 45 6 Z M37 3 C37 3.66 37 4.32 37 5 C37.99 4.67 38.98 4.34 40 4 C39.01 3.67 38.02 3.34 37 3 Z M20 5 C21 8 21 8 21 8 Z M43 7 C43 10 43 10 43 10 Z M32 8 C33 10 33 10 33 10 Z M19 9 C20 11 20 11 20 11 Z M74 9 C75 12 75 12 75 12 Z M80 9 C81 12 81 12 81 12 Z M70 12 C74 13 74 13 74 13 Z " fill="#9D742C" transform="translate(15,82)"/>
<path d="M0 0 C0.66 0.33 1.32 0.66 2 1 C1.525625 1.78375 1.05125 2.5675 0.5625 3.375 C-2.57701776 10.65868119 -2.61538501 17.27078191 -0.00390625 24.7421875 C2.61349213 30.62878776 6.51856118 33.64862925 12.23046875 36.43359375 C14.07796843 37.25209663 14.07796843 37.25209663 16 36 C16.33 36.66 16.66 37.32 17 38 C25.54824466 38.15873088 25.54824466 38.15873088 34 37 C32.58295703 40.10632572 30.89166189 42.5825814 28.6875 45.1875 C28.11386719 45.88230469 27.54023437 46.57710937 26.94921875 47.29296875 C24.60762888 49.3436196 23.03711167 49.53383867 20 50 C19.34 50.34546875 18.68 50.6909375 18 51.046875 C15.54030739 52.21907226 13.71431387 52.26655069 11 52.25 C10.154375 52.25515625 9.30875 52.2603125 8.4375 52.265625 C5.82823942 51.9812825 4.26331389 51.28994717 2 50 C1.030625 49.566875 0.06125 49.13375 -0.9375 48.6875 C-7.76183595 44.92715162 -12.55074348 38.34776956 -15 31 C-15.85602347 22.28078952 -15.2764171 15.19053499 -10 8 C-7.00047178 4.86282613 -3.90346938 1.95173469 0 0 Z " fill="#E5A224" transform="translate(42,26)"/>
<path d="M0 0 C2.3125 0.0625 2.3125 0.0625 5 1 C6.8125 4.5625 6.8125 4.5625 8 8 C8.33 5.36 8.66 2.72 9 0 C11.875 0.3125 11.875 0.3125 15 1 C15.66 1.99 16.32 2.98 17 4 C17.66 2.68 18.32 1.36 19 0 C20.65 0 22.3 0 24 0 C24 4.29 24 8.58 24 13 C21.72135417 13.22786458 19.44270833 13.45572917 17.1640625 13.68359375 C14.95727195 13.89090114 14.95727195 13.89090114 13 15 C11.45976004 15.06950541 9.91665012 15.08452357 8.375 15.0625 C7.14910156 15.04896484 7.14910156 15.04896484 5.8984375 15.03515625 C4.95871094 15.01775391 4.95871094 15.01775391 4 15 C3.67 14.34 3.34 13.68 3 13 C-3.435 13.495 -3.435 13.495 -10 14 C-9.67 13.01 -9.34 12.02 -9 11 C-8.01 11.33 -7.02 11.66 -6 12 C-6 8.37 -6 4.74 -6 1 C-5.34 1 -4.68 1 -4 1 C-3.67 2.32 -3.34 3.64 -3 5 C-2.01 3.35 -1.02 1.7 0 0 Z M13 10 C14 13 14 13 14 13 Z M19 10 C20 13 20 13 20 13 Z M9 13 C13 14 13 14 13 14 Z " fill="#795419" transform="translate(76,81)"/>
<path d="M0 0 C0.33 0.33 0.66 0.66 1 1 C1.33 0.34 1.66 -0.32 2 -1 C3.875 -0.6875 3.875 -0.6875 6 0 C6.66 0.99 7.32 1.98 8 3 C8.66 1.68 9.32 0.36 10 -1 C12.86724686 -0.42655063 13.8614515 -0.1385485 16 2 C16.33 2 16.66 2 17 2 C17.04241723 4.33294775 17.04092937 6.66702567 17 9 C16.67 9.33 16.34 9.66 16 10 C17.32 10.33 18.64 10.66 20 11 C19.67 9.35 19.34 7.7 19 6 C19.99 5.67 20.98 5.34 22 5 C21.67 6.98 21.34 8.96 21 11 C21.99 11.33 22.98 11.66 24 12 C20.17010894 13.80230168 17.21878192 14.19622241 13 14 C12.67 13.01 12.34 12.02 12 11 C11.01 12.485 11.01 12.485 10 14 C7.375 14.1875 7.375 14.1875 5 14 C4.01 11.36 3.02 8.72 2 6 C2 8.31 2 10.62 2 13 C-1.04300316 14.52150158 -3.654085 14.23899393 -7 14 C-9.20914 10.68629 -9.22481553 9.6553979 -9.125 5.8125 C-9.10695313 4.91144531 -9.08890625 4.01039062 -9.0703125 3.08203125 C-9.04710937 2.39496094 -9.02390625 1.70789063 -9 1 C-5.52718042 -0.9326352 -3.86480758 -1.14899685 0 0 Z " fill="#74501B" transform="translate(15,82)"/>
<path d="M0 0 C0.66 0.66 1.32 1.32 2 2 C7.65928876 2.54558503 13.4461856 2.20082474 19 1 C17.58295703 4.10632572 15.89166189 6.5825814 13.6875 9.1875 C13.11386719 9.88230469 12.54023437 10.57710937 11.94921875 11.29296875 C9.60762888 13.3436196 8.03711167 13.53383867 5 14 C4.34 14.34546875 3.68 14.6909375 3 15.046875 C0.54030739 16.21907226 -1.28568613 16.26655069 -4 16.25 C-5.2684375 16.25773437 -5.2684375 16.25773437 -6.5625 16.265625 C-9.13478811 15.98531155 -10.7803108 15.2948187 -13 14 C-12.484375 13.649375 -11.96875 13.29875 -11.4375 12.9375 C-6.81261418 9.26130871 -2.42820478 5.46947117 0 0 Z " fill="#BA841E" transform="translate(57,62)"/>
<path d="M0 0 C1.00023193 0.00523682 2.00046387 0.01047363 3.03100586 0.01586914 C4.1105957 0.0190918 5.19018555 0.02231445 6.30249023 0.02563477 C8.00695313 0.03820312 8.00695313 0.03820312 9.74584961 0.05102539 C11.45611328 0.05779297 11.45611328 0.05779297 13.20092773 0.06469727 C16.02845312 0.07652792 18.85587601 0.09301129 21.68334961 0.11352539 C22.24975586 2.00268555 22.24975586 2.00268555 22.68334961 4.11352539 C21.62084961 5.88696289 21.62084961 5.88696289 19.68334961 7.11352539 C16.87084961 7.15258789 16.87084961 7.15258789 13.68334961 6.73852539 C9.11741416 6.12959373 9.11741416 6.12959373 4.68334961 7.11352539 C3.69334961 6.78352539 2.70334961 6.45352539 1.68334961 6.11352539 C-0.45920832 6.50285395 -0.45920832 6.50285395 -2.31665039 7.11352539 C-2.81165039 6.12352539 -2.81165039 6.12352539 -3.31665039 5.11352539 C-14.53665039 4.78352539 -25.75665039 4.45352539 -37.31665039 4.11352539 C-37.31665039 3.45352539 -37.31665039 2.79352539 -37.31665039 2.11352539 C-35.77956421 2.07594116 -35.77956421 2.07594116 -34.21142578 2.03759766 C-30.42255363 1.94368055 -26.63387158 1.84342222 -22.84521484 1.74121094 C-21.20300736 1.69780242 -19.560753 1.65613181 -17.91845703 1.61621094 C-15.56276294 1.55865099 -13.20730611 1.49491647 -10.85180664 1.42993164 C-10.11325943 1.41321915 -9.37471222 1.39650665 -8.61378479 1.37928772 C-5.32983498 1.28305467 -2.97405432 0.14574088 0 0 Z " fill="#805817" transform="translate(43.316650390625,95.886474609375)"/>
<path d="M0 0 C0.7425 0.165 1.485 0.33 2.25 0.5 C5.18606431 1.03382988 7.13588733 0.73648612 10 0 C10.99 1.65 11.98 3.3 13 5 C13.66 4.01 14.32 3.02 15 2 C15 4.97 15 7.94 15 11 C15.99 11.33 16.98 11.66 18 12 C18 11.01 18 10.02 18 9 C18.66 9.33 19.32 9.66 20 10 C19.67 10.99 19.34 11.98 19 13 C15.0585998 14.03038433 12.16384848 13.87693282 8.1875 13.0625 C7.21167969 12.86785156 6.23585938 12.67320313 5.23046875 12.47265625 C4.49441406 12.31667969 3.75835937 12.16070312 3 12 C3 10.02 3 8.04 3 6 C2.34 7.98 1.68 9.96 1 12 C-0.65 12 -2.3 12 -4 12 C-3.34 11.34 -2.68 10.68 -2 10 C-1.5769311 7.83000806 -1.5769311 7.83000806 -1.4375 5.4375 C-1.09722222 1.09722222 -1.09722222 1.09722222 0 0 Z " fill="#D3912A" transform="translate(33,81)"/>
<path d="M0 0 C-0.0721875 0.69867188 -0.144375 1.39734375 -0.21875 2.1171875 C-0.3115625 3.02726562 -0.404375 3.93734375 -0.5 4.875 C-0.5928125 5.77992187 -0.685625 6.68484375 -0.78125 7.6171875 C-1.03047295 9.93313211 -1.03047295 9.93313211 -1 12 C-4.04300316 13.52150158 -6.654085 13.23899393 -10 13 C-12.20914 9.68629 -12.22481553 8.6553979 -12.125 4.8125 C-12.10695313 3.91144531 -12.08890625 3.01039062 -12.0703125 2.08203125 C-12.04710937 1.39496094 -12.02390625 0.70789063 -12 0 C-7.40571182 -2.54587944 -4.86837943 -1.62279314 0 0 Z " fill="#855B18" transform="translate(18,83)"/>
<path d="M0 0 C11.22 0 22.44 0 34 0 C34 1.32 34 2.64 34 4 C22.78 4 11.56 4 0 4 C0 2.68 0 1.36 0 0 Z " fill="#4D3713" transform="translate(67,98)"/>
<path d="M0 0 C2.03125 0.0859375 2.03125 0.0859375 4.5 0.375 C5.3146875 0.46523437 6.129375 0.55546875 6.96875 0.6484375 C9 1 9 1 10 2 C10.07205511 3.68608966 10.08386068 5.37500659 10.0625 7.0625 C10.05347656 7.98160156 10.04445313 8.90070313 10.03515625 9.84765625 C10.02355469 10.55792969 10.01195312 11.26820312 10 12 C8.35 11.67 6.7 11.34 5 11 C5 10.34 5 9.68 5 9 C4.34 9 3.68 9 3 9 C3 9.99 3 10.98 3 12 C2.01 12 1.02 12 0 12 C-0.19401633 10.18818595 -0.38004375 8.37551468 -0.5625 6.5625 C-0.66691406 5.55316406 -0.77132812 4.54382813 -0.87890625 3.50390625 C-0.91886719 2.67761719 -0.95882812 1.85132812 -1 1 C-0.67 0.67 -0.34 0.34 0 0 Z M4 4 C4 4.66 4 5.32 4 6 C4.99 5.67 5.98 5.34 7 5 C6.01 4.67 5.02 4.34 4 4 Z " fill="#C3912E" transform="translate(48,81)"/>
<path d="M0 0 C4.62 0 9.24 0 14 0 C15 4 15 4 13.9375 5.7734375 C11.1393639 7.54483818 9.24166678 7.04609887 6 6.625 C1.43406455 6.01606834 1.43406455 6.01606834 -3 7 C-3.66 6.34 -4.32 5.68 -5 5 C-3.68 5 -2.36 5 -1 5 C-0.67 3.35 -0.34 1.7 0 0 Z " fill="#7D541A" transform="translate(51,96)"/>
<path d="M0 0 C0.66 0.99 1.32 1.98 2 3 C-1.75 4.125 -1.75 4.125 -4 3 C-4.33 4.32 -4.66 5.64 -5 7 C-5 5.68 -5 4.36 -5 3 C-5.66 3 -6.32 3 -7 3 C-7.66 4.32 -8.32 5.64 -9 7 C-9.66 7 -10.32 7 -11 7 C-10.855625 7.72445313 -10.71125 8.44890625 -10.5625 9.1953125 C-9.60449608 14.18491623 -8.72392851 18.89267738 -9 24 C-12.77019762 18.34470356 -12.65466821 12.61651337 -12 6 C-9.54511394 -0.2128396 -6.33213983 -1.58303496 0 0 Z " fill="#966D21" transform="translate(61,3)"/>
<path d="M0 0 C4.55555556 0.55555556 4.55555556 0.55555556 6 2 C6.04092937 4.33297433 6.04241723 6.66705225 6 9 C4.34385343 9.38218767 2.67542976 9.71395102 1 10 C0.67 9.67 0.34 9.34 0 9 C-0.66 9 -1.32 9 -2 9 C-2.125 5.625 -2.125 5.625 -2 2 C-1.34 1.34 -0.68 0.68 0 0 Z " fill="#B27E31" transform="translate(76,81)"/>
<path d="M0 0 C0.66 0.99 1.32 1.98 2 3 C2.66 2.01 3.32 1.02 4 0 C4 2.97 4 5.94 4 9 C4.99 9.33 5.98 9.66 7 10 C7 9.01 7 8.02 7 7 C7.66 7.33 8.32 7.66 9 8 C8.67 8.99 8.34 9.98 8 11 C3.74433453 12.16063604 0.3164922 11.76173392 -4 11 C-4 8.33333333 -4 5.66666667 -4 3 C-2 3 -2 3 -0.375 4.5 C0.07875 4.995 0.5325 5.49 1 6 C0.67 4.02 0.34 2.04 0 0 Z " fill="#79571F" transform="translate(44,83)"/>
<path d="M0 0 C2.97 0 5.94 0 9 0 C9 1.65 9 3.3 9 5 C6.03 5.66 3.06 6.32 0 7 C0 4.69 0 2.38 0 0 Z " fill="#95631D" transform="translate(41,96)"/>
<path d="M0 0 C4 1 4 1 5 2 C5.04092937 4.33297433 5.04241723 6.66705225 5 9 C5.99 9.33 6.98 9.66 8 10 C8 10.66 8 11.32 8 12 C6.35 12 4.7 12 3 12 C3 11.01 3 10.02 3 9 C2.34 9 1.68 9 1 9 C0.67 6.03 0.34 3.06 0 0 Z " fill="#A76E1D" transform="translate(17,81)"/>
<path d="M0 0 C2.97 0.495 2.97 0.495 6 1 C6 1.99 6 2.98 6 4 C7.32 4.66 8.64 5.32 10 6 C8 8 8 8 4.5 8.3125 C2.7675 8.1578125 2.7675 8.1578125 1 8 C-1 5 -1 5 -0.625 2.3125 C-0.41875 1.549375 -0.2125 0.78625 0 0 Z " fill="#493511" transform="translate(7,88)"/>
<path d="M0 0 C1.65 0 3.3 0 5 0 C4.67 3.96 4.34 7.92 4 12 C3.34 12 2.68 12 2 12 C1.67 10.35 1.34 8.7 1 7 C0.34 7.66 -0.32 8.32 -1 9 C-1.09765625 2.84765625 -1.09765625 2.84765625 -1 1 C-0.67 0.67 -0.34 0.34 0 0 Z " fill="#AA7F3B" transform="translate(95,81)"/>
<path d="M0 0 C2.97 0.495 2.97 0.495 6 1 C6 3.64 6 6.28 6 9 C5.34 8.34 4.68 7.68 4 7 C3.67 8.65 3.34 10.3 3 12 C2.34 12 1.68 12 1 12 C0.67 8.04 0.34 4.08 0 0 Z " fill="#BE842E" transform="translate(85,81)"/>
<path d="M0 0 C0.12375 0.639375 0.2475 1.27875 0.375 1.9375 C0.684375 2.9584375 0.684375 2.9584375 1 4 C1.66 4.33 2.32 4.66 3 5 C2.125 12.875 2.125 12.875 1 14 C-1.5 14.125 -1.5 14.125 -4 14 C-5 13 -5 13 -5.0625 10.4375 C-5.041875 9.633125 -5.02125 8.82875 -5 8 C-4.67 8.99 -4.34 9.98 -4 11 C-2.35 11 -0.7 11 1 11 C0.195625 10.505 0.195625 10.505 -0.625 10 C-2 8 -2 8 -1.75390625 6.01953125 C-1.23438369 3.99518471 -0.62151638 1.9953947 0 0 Z " fill="#9F6A1F" transform="translate(24,82)"/>
<path d="M0 0 C0.66 0.33 1.32 0.66 2 1 C1.2884375 2.175625 1.2884375 2.175625 0.5625 3.375 C-1.13601492 7.31555462 -1.51580336 10.49495215 -1.7890625 14.73046875 C-2 17 -2 17 -3 20 C-4.38226016 17.23547967 -4.09525387 14.9538637 -4.0625 11.875 C-4.05347656 10.77929688 -4.04445312 9.68359375 -4.03515625 8.5546875 C-4.02355469 7.71164063 -4.01195312 6.86859375 -4 6 C-5.32 6.33 -6.64 6.66 -8 7 C-5.42215154 4.35247996 -3.08351902 2.05567935 0 0 Z " fill="#86611A" transform="translate(42,26)"/>
<path d="M0 0 C1.47968324 0.14049518 2.95874516 0.28754826 4.4375 0.4375 C5.67306641 0.55931641 5.67306641 0.55931641 6.93359375 0.68359375 C9 1 9 1 10 2 C10.04080783 3.99958364 10.04254356 6.00045254 10 8 C9.34 8 8.68 8 8 8 C8 6.35 8 4.7 8 3 C6.01508358 3.26676204 6.01508358 3.26676204 4 4 C3.67 4.99 3.34 5.98 3 7 C2.34 7 1.68 7 1 7 C0.67 4.69 0.34 2.38 0 0 Z " fill="#E1B54F" transform="translate(48,81)"/>
<path d="M0 0 C2.12508244 3.18762365 2.5020163 5.26512223 3 9 C4.32 9.33 5.64 9.66 7 10 C4.03 10 1.06 10 -2 10 C-2.33 9.34 -2.66 8.68 -3 8 C-3.99 7.67 -4.98 7.34 -6 7 C-5.071875 6.6596875 -5.071875 6.6596875 -4.125 6.3125 C-1.38589791 4.62070165 -0.94975528 3.00755839 0 0 Z " fill="#614317" transform="translate(82,86)"/>
<path d="M0 0 C1.67542976 0.28604898 3.34385343 0.61781233 5 1 C5.33 3.31 5.66 5.62 6 8 C5.01 7.67 4.02 7.34 3 7 C3 6.34 3 5.68 3 5 C2.34 5 1.68 5 1 5 C0.67 5.66 0.34 6.32 0 7 C-1 6 -1 6 -1.125 3.5 C-1 1 -1 1 0 0 Z " fill="#DEAC45" transform="translate(39,81)"/>
<path d="M0 0 C1.48831242 0.00667405 2.97660807 0.01863442 4.46484375 0.03515625 C5.22345703 0.03966797 5.98207031 0.04417969 6.76367188 0.04882812 C8.64326246 0.06064945 10.52281274 0.07858547 12.40234375 0.09765625 C12.73234375 0.75765625 13.06234375 1.41765625 13.40234375 2.09765625 C10.34973745 2.98093354 7.57729198 3.26095695 4.40234375 3.28515625 C3.55671875 3.29933594 2.71109375 3.31351562 1.83984375 3.328125 C-0.75174241 3.08308721 -2.36790617 2.40350526 -4.59765625 1.09765625 C-3.59765625 0.09765625 -3.59765625 0.09765625 0 0 Z " fill="#3A2D12" transform="translate(48.59765625,74.90234375)"/>
<path d="M0 0 C2.475 0.495 2.475 0.495 5 1 C4.855625 1.70125 4.71125 2.4025 4.5625 3.125 C3.98521625 6.07556141 3.48304859 9.03270151 3 12 C2.34 12 1.68 12 1 12 C0.67 8.04 0.34 4.08 0 0 Z " fill="#DFAA41" transform="translate(60,81)"/>
<path d="M0 0 C10.89 0 21.78 0 33 0 C33 0.33 33 0.66 33 1 C22.11 1 11.22 1 0 1 C0 0.67 0 0.34 0 0 Z " fill="#0E0E0E" transform="translate(6,101)"/>
<path d="M0 0 C1.32 0.33 2.64 0.66 4 1 C4 3.97 4 6.94 4 10 C3.34 8.68 2.68 7.36 2 6 C1.34 5.67 0.68 5.34 0 5 C0 3.35 0 1.7 0 0 Z " fill="#D2963C" transform="translate(25,81)"/>
<path d="M0 0 C1.5 1.375 1.5 1.375 3 3 C3 3.66 3 4.32 3 5 C3.99 5.33 4.98 5.66 6 6 C4.68 6 3.36 6 2 6 C2 6.66 2 7.32 2 8 C1.01 8 0.02 8 -1 8 C-0.67 5.36 -0.34 2.72 0 0 Z " fill="#D8962B" transform="translate(37,85)"/>
<path d="M0 0 C0.33 0.99 0.66 1.98 1 3 C2.98 2.67 4.96 2.34 7 2 C6.67 3.32 6.34 4.64 6 6 C4.33388095 6.042721 2.66617115 6.04063832 1 6 C0 5 0 5 -0.0625 2.4375 C-0.041875 1.633125 -0.02125 0.82875 0 0 Z " fill="#402E13" transform="translate(19,90)"/>
<path d="M0 0 C1.65 0.33 3.3 0.66 5 1 C5.33 2.32 5.66 3.64 6 5 C5.01 5 4.02 5 3 5 C3 4.34 3 3.68 3 3 C1.68 2.67 0.36 2.34 -1 2 C-0.67 1.34 -0.34 0.68 0 0 Z " fill="#B58235" transform="translate(10,81)"/>
<path d="M0 0 C2.0625 0.4375 2.0625 0.4375 4 1 C3.01 1.33 2.02 1.66 1 2 C0.67 3.65 0.34 5.3 0 7 C-0.66 7 -1.32 7 -2 7 C-1.125 1.125 -1.125 1.125 0 0 Z " fill="#DB962A" transform="translate(76,83)"/>
<path d="M0 0 C2.31 0 4.62 0 7 0 C7 1.32 7 2.64 7 4 C5.35 3.67 3.7 3.34 2 3 C2 2.34 2 1.68 2 1 C1.34 0.67 0.68 0.34 0 0 Z " fill="#BC862A" transform="translate(51,89)"/>
<path d="M0 0 C1.98 0.66 3.96 1.32 6 2 C5.401875 2.28875 4.80375 2.5775 4.1875 2.875 C1.80672208 4.04742026 1.80672208 4.04742026 -1 6 C-1.042721 4.33388095 -1.04063832 2.66617115 -1 1 C-0.67 0.67 -0.34 0.34 0 0 Z " fill="#785213" transform="translate(7,82)"/>
<path d="M0 0 C0.33 0 0.66 0 1 0 C1 3.3 1 6.6 1 10 C0.34 10 -0.32 10 -1 10 C-2.25 3.375 -2.25 3.375 0 0 Z " fill="#A16F18" transform="translate(98,83)"/>
<path d="M0 0 C1.32 0.33 2.64 0.66 4 1 C4 2.65 4 4.3 4 6 C3.01 5.67 2.02 5.34 1 5 C0.67 3.35 0.34 1.7 0 0 Z " fill="#C68E3E" transform="translate(17,81)"/>
<path d="M0 0 C1.32 0 2.64 0 4 0 C4.33 1.32 4.66 2.64 5 4 C4.01 4.66 3.02 5.32 2 6 C2 4.68 2 3.36 2 2 C1.01 2.33 0.02 2.66 -1 3 C-0.67 2.01 -0.34 1.02 0 0 Z " fill="#957B4A" transform="translate(33,81)"/>
<path d="M0 0 C4 1 4 1 4 1 Z " fill="#2D2310" transform="translate(96,95)"/>
<path d="M0 0 C4 1 4 1 4 1 Z " fill="#4B3515" transform="translate(72,95)"/>
<path d="M0 0 C4 1 4 1 4 1 Z " fill="#493415" transform="translate(67,95)"/>
<path d="M0 0 C4 1 4 1 4 1 Z " fill="#4A3415" transform="translate(35,95)"/>
<path d="M0 0 C3 1 3 1 3 1 Z " fill="#352811" transform="translate(91,95)"/>
<path d="M0 0 C2 1 2 1 2 1 Z " fill="#000000" transform="translate(55,102)"/>
<path d="" fill="#000000" transform="translate(0,0)"/>
<path d="" fill="#000000" transform="translate(0,0)"/>
<path d="" fill="#4D3717" transform="translate(0,0)"/>
<path d="" fill="#3A2B15" transform="translate(0,0)"/>
<path d="" fill="#523A17" transform="translate(0,0)"/>
<path d="" fill="#111010" transform="translate(0,0)"/>
<path d="" fill="#5B3E16" transform="translate(0,0)"/>
<path d="" fill="#614317" transform="translate(0,0)"/>
<path d="" fill="#724F1B" transform="translate(0,0)"/>
<path d="" fill="#5D4119" transform="translate(0,0)"/>
<path d="" fill="#2E2312" transform="translate(0,0)"/>
<path d="" fill="#0D0D0D" transform="translate(0,0)"/>
<path d="" fill="#0C0C0C" transform="translate(0,0)"/>
<path d="" fill="#0B0B0B" transform="translate(0,0)"/>
<path d="" fill="#0A0A0A" transform="translate(0,0)"/>
<path d="" fill="#0B0B0B" transform="translate(0,0)"/>
<path d="" fill="#080807" transform="translate(0,0)"/>
<path d="" fill="#0B0C0D" transform="translate(0,0)"/>
<path d="" fill="#0A0A09" transform="translate(0,0)"/>
<path d="" fill="#090909" transform="translate(0,0)"/>
<path d="" fill="#09090A" transform="translate(0,0)"/>
<path d="" fill="#090909" transform="translate(0,0)"/>
</svg>
