<?xml version="1.0" encoding="UTF-8"?>
<svg version="1.1" xmlns="http://www.w3.org/2000/svg" width="3840" height="2160">
<path d="M0 0 C1.66313232 0.70358643 1.66313232 0.70358643 3.35986328 1.42138672 C31.87904343 13.52340177 59.93574487 27.31382114 86.40625 43.4296875 C88.96493163 44.97876885 91.54083154 46.49388955 94.125 48 C106.81547845 55.42905338 118.96442126 63.55669597 131 72 C131.81275391 72.56895996 132.62550781 73.13791992 133.46289062 73.72412109 C143.72962732 80.94093332 153.59619163 88.54120581 163.25146484 96.55566406 C165.73089102 98.60373517 168.24372046 100.60993691 170.75 102.625 C175.66701795 106.6473425 180.3338579 110.89839072 184.98046875 115.2265625 C187.14458866 117.23856017 189.36339282 119.16989592 191.609375 121.08984375 C196.79162001 125.60672168 201.62439643 130.47455043 206.47290039 135.3425293 C208.05959946 136.93458966 209.65157742 138.5212299 211.24414062 140.10742188 C216.70584699 145.56518688 222.01784698 151.09574722 227 157 C227.91233221 158.05635956 228.82507187 159.1123674 229.73828125 160.16796875 C247.90093905 181.47257343 263.92600006 204.3873996 277.625 228.8125 C278.0389502 229.54718506 278.45290039 230.28187012 278.87939453 231.03881836 C279.26208496 231.73370361 279.64477539 232.42858887 280.0390625 233.14453125 C280.53720459 234.04715698 280.53720459 234.04715698 281.04541016 234.96801758 C282.27023904 237.57524286 283.12781076 240.25748174 284 243 C273.78271187 240.88628716 263.58414379 238.70261181 253.40625 236.40625 C153.27585882 213.83019251 52.2303467 195.56696758 -288.09362793 163.70446777 C-289.66438359 163.69339209 -291.23511715 163.67819866 -292.80578613 163.6583252 C-308.36043027 163.48690771 -323.41179714 165.84042701 -335.18359375 176.875 C-352.91870801 197.62317668 -348.31559519 235.11989653 -348.20313561 260.53142856 C-348.19313146 263.03881286 -348.1870403 265.54617878 -348.18214703 268.05357802 C-348.09005777 314.92479858 -347.54335464 361.79431183 -347.03228518 408.66240821 C-346.88851563 421.86888574 -346.75032135 435.07542069 -346.61248404 448.28196112 C-346.54109542 455.12108071 -346.46944202 461.96019752 -346.39771271 468.79931355 C-346.39054503 469.48274415 -346.38337734 470.16617476 -346.37599246 470.87031538 C-346.20715402 486.96279889 -346.03568037 503.05525414 -345.86376953 519.14770508 C-345.85255821 520.19731274 -345.85255821 520.19731274 -345.8411204 521.2681246 C-345.76541577 528.35548592 -345.68967348 535.44284683 -345.61390771 542.53020749 C-345.45442506 557.4489279 -345.29520375 572.3676511 -345.13623047 587.28637695 C-345.12502505 588.33780865 -345.12502505 588.33780865 -345.11359326 589.4104814 C-344.94204191 605.50877955 -344.77119533 621.60708484 -344.60228729 637.70541096 C-344.59513107 638.38742377 -344.58797484 639.06943658 -344.58060176 639.77211645 C-344.50904789 646.59274381 -344.43760162 653.41337228 -344.3663195 660.23400248 C-344.2219645 674.0440968 -344.076148 687.85417302 -343.92597961 701.66420555 C-342.97811845 788.8817357 -342.97811845 788.8817357 -342.93286133 818.98110962 C-342.93110494 820.14760353 -342.93110494 820.14760353 -342.92931306 821.33766298 C-342.91121912 835.89188944 -342.96325052 850.44576335 -343 865 C-367.09 865 -391.18 865 -416 865 C-416.15398419 799.6685417 -415.74416037 734.3549401 -415.03228328 669.02754725 C-414.93224671 659.83083644 -414.83479212 650.63410038 -414.73908997 641.4373436 C-414.73215823 640.77124732 -414.7252265 640.10515105 -414.71808471 639.41887004 C-414.68284777 636.03138823 -414.64765562 632.64390595 -414.61248404 629.25642346 C-414.36656894 605.5760205 -414.11663337 581.89566174 -413.86376953 558.21533203 C-413.84866533 556.80070475 -413.83356121 555.38607747 -413.81845719 553.97145019 C-413.80723156 552.92009667 -413.80723156 552.92009667 -413.79577916 551.84750369 C-413.75791361 548.30112716 -413.72005018 544.75475061 -413.68218994 541.20837402 C-413.67092751 540.15348742 -413.67092751 540.15348742 -413.65943756 539.07728998 C-413.48404607 522.647403 -413.3099189 506.21750271 -413.13623047 489.78759766 C-413.12876019 489.08104617 -413.12128991 488.37449468 -413.11359326 487.64653254 C-412.94237821 471.45168453 -412.77175842 455.25683039 -412.60228729 439.06196404 C-412.59513107 438.37816312 -412.58797484 437.6943622 -412.58060176 436.98984005 C-412.51618257 430.83387809 -412.4517874 424.67791588 -412.38751596 418.52195238 C-412.22221814 402.68975358 -412.05512248 386.8575759 -411.8845228 371.02543317 C-411.77782511 361.11585172 -411.67285375 351.20625293 -411.56915104 341.2966397 C-411.50966873 335.61940904 -411.4494246 329.94218954 -411.38687706 324.26499176 C-411.14954822 302.67336796 -410.95502275 281.0822444 -410.92507964 259.48919903 C-410.9221052 257.47662671 -410.91789884 255.46405574 -410.91230983 253.45148899 C-409.8890761 215.02583894 -409.8890761 215.02583894 -421.625 179.3125 C-434.79707571 166.48705786 -449.56895087 163.60008038 -467.3125 163.6875 C-468.0909729 163.68932281 -468.8694458 163.69114563 -469.67150879 163.69302368 C-550.22565732 164.00001663 -631.21403429 172.71231345 -1031.95678711 240.95581055 C-1033.14409424 241.2475415 -1034.33140137 241.53927246 -1035.5546875 241.83984375 C-1036.54968262 242.09113037 -1037.54467773 242.34241699 -1038.56982422 242.60131836 C-1041 243 -1041 243 -1044 242 C-1029.8393361 213.74531062 -1012.23489689 188.21040643 -992 164 C-991.51354004 163.41444336 -991.02708008 162.82888672 -990.52587891 162.22558594 C-978.46156309 147.74187909 -965.65834176 133.38520229 -951.35546875 121.07421875 C-948.98386948 118.98579552 -946.67137598 116.84509917 -944.36230469 114.68823242 C-938.10984254 108.85229727 -931.68827255 103.33629242 -925 98 C-923.87030792 97.07908815 -922.74144468 96.15715889 -921.61328125 95.234375 C-890.87276708 70.19485913 -856.92041961 48.69249441 -822 30 C-821.05592285 29.49178711 -820.1118457 28.98357422 -819.13916016 28.45996094 C-743.2137862 -12.2336387 -659.80043712 -39.28378224 0 0 Z " fill="#1072BA" transform="translate(2301,334)"/>
<path d="M0 0 C1.38442291 -0.00660141 1.38442291 -0.00660141 2.79681396 -0.01333618 C24.60161737 -0.05785811 50.93711928 1.48053466 68.125 16.5 C68.85074219 17.11746094 69.57648437 17.73492188 70.32421875 18.37109375 C80.31376035 27.54817725 84.57844071 40.93788263 85.26708984 54.24584961 C87.94807332 141.24172217 60.23777732 234.95934797 -8.64453125 555.94921875 C-8.9281955 557.14909424 -9.21185974 558.34896973 -9.50411987 559.58520508 C-10.03371585 561.81735275 -10.56662771 564.04871725 -11.10342407 566.27914429 C-11.63716742 568.50719504 -12.15917625 570.73807756 -12.67172241 572.97109985 C-12.92918243 574.06449677 -13.18664246 575.15789368 -13.4519043 576.28442383 C-13.67798874 577.26429764 -13.90407318 578.24417145 -14.13700867 579.2537384 C-14.38054581 579.99500473 -14.62408295 580.73627106 -14.875 581.5 C-17.46734359 582.7961718 -18.41947528 582.30902768 -21.20898438 581.62646484 C-22.11592041 581.40757095 -23.02285645 581.18867706 -23.95727539 580.96315002 C-24.95106201 580.71491989 -25.94484863 580.46668976 -26.96875 580.2109375 C-28.00636475 579.9563829 -29.04397949 579.70182831 -30.11303711 579.43955994 C-33.53624234 578.59461704 -36.95589494 577.73637697 -40.375 576.875 C-41.54281006 576.58233246 -42.71062012 576.28966492 -43.91381836 575.98812866 C-66.50285188 570.30667843 -88.77091804 563.83900056 -110.875 556.5 C-111.8693808 556.17059418 -111.8693808 556.17059418 -112.8838501 555.83453369 C-143.23679894 545.74413176 -173.10142627 533.46213216 -201.875 519.5 C-202.46498779 519.2142511 -203.05497559 518.9285022 -203.6628418 518.63409424 C-221.07753793 510.19093516 -238.19633611 501.33470103 -254.875 491.5 C-255.81891602 490.94489746 -256.76283203 490.38979492 -257.73535156 489.81787109 C-272.18204682 481.27985959 -286.12637361 472.1170167 -299.875 462.5 C-300.5644873 462.02046875 -301.25397461 461.5409375 -301.96435547 461.046875 C-310.31226934 455.23219491 -318.36719272 449.09455488 -326.31445312 442.74462891 C-327.69950919 441.63996436 -329.09145652 440.54395258 -330.484375 439.44921875 C-335.30228628 435.64684759 -340.01565254 431.72945902 -344.6875 427.75 C-345.20763672 427.30922119 -345.72777344 426.86844238 -346.26367188 426.41430664 C-356.90116352 417.29122436 -366.99226373 407.56944392 -376.89697266 397.66333008 C-378.63295956 395.92955057 -380.3768511 394.20398462 -382.12109375 392.47851562 C-388.84029719 385.7925147 -394.98483355 378.93577458 -400.875 371.5 C-401.79793301 370.4097948 -402.7275679 369.32517392 -403.66796875 368.25 C-463.05478085 300.04720112 -497.04698754 208.14584982 -491.3828125 117.55078125 C-490.43093463 105.13233936 -488.69653211 92.81477369 -486.875 80.5 C-486.73223633 79.44941406 -486.58947266 78.39882813 -486.44238281 77.31640625 C-486.06842581 74.61812086 -485.64089847 71.93590176 -485.1875 69.25 C-485.08783936 68.48848633 -484.98817871 67.72697266 -484.88549805 66.94238281 C-484.48828125 64.859375 -484.48828125 64.859375 -482.875 61.5 C-476.55699932 58.1995866 -468.63677517 57.21909411 -461.7265625 55.75 C-459.95636497 55.36838715 -459.95636497 55.36838715 -458.15040588 54.97906494 C-454.93904952 54.28960012 -451.72661406 53.60556527 -448.51317978 52.92585754 C-446.48299987 52.49640388 -444.45311462 52.06557669 -442.42324829 51.63464355 C-348.2814217 31.67723323 -253.21850352 17.62457132 0 0 Z " fill="#1072BA" transform="translate(1710.875,592.5)"/>
<path d="M0 0 C0.98692841 -0.00139984 1.97385681 -0.00279968 2.99069214 -0.00424194 C37.59654266 0.03458224 72.18024865 2.8278294 106.68171692 5.26917267 C108.96854347 5.43085704 111.25544052 5.59150535 113.5423584 5.75189209 C211.58376515 12.64362779 309.02261022 25.17302742 430.5 49.125 C431.59878479 49.34734314 432.69756958 49.56968628 433.82965088 49.79876709 C449.97200703 53.07478111 466.02973825 56.66230333 482.0625 60.4375 C484.77549911 70.81392076 486.73985242 81.12834745 488.25 91.75 C488.49991699 93.50038574 488.49991699 93.50038574 488.75488281 95.28613281 C490.64978889 109.04073856 491.30289959 122.57093432 491.3125 136.4375 C491.31351212 137.75841644 491.31351212 137.75841644 491.31454468 139.10601807 C491.21696443 219.76566911 459.50445022 296.24664833 409.0625 358.4375 C408.29421875 359.39914062 407.5259375 360.36078125 406.734375 361.3515625 C402.21557911 366.96055739 397.50461695 372.34611751 392.6171875 377.63671875 C391.27261172 379.11081789 389.93249482 380.58986687 388.63745117 382.10766602 C383.48433134 388.14332533 377.91114308 393.74073233 372.29272461 399.33764648 C370.62823723 400.9967732 368.96916553 402.66118051 367.31054688 404.32617188 C361.73299738 409.90752594 356.08107718 415.32939357 350.0625 420.4375 C348.90539302 421.45849581 347.75042053 422.48191605 346.59765625 423.5078125 C338.03442852 431.06338561 329.16427123 438.08951787 320.03466797 444.94580078 C318.22976348 446.31098603 316.44115923 447.69369389 314.66015625 449.08984375 C246.58302825 502.44731118 164.31340315 539.17797489 27.5625 579.5625 C26.73282715 579.76270752 25.9031543 579.96291504 25.04833984 580.16918945 C21.59928309 580.9696113 18.62429695 581.4375 15.0625 581.4375 C11.23229918 567.58195105 7.89550797 553.60688401 4.5625 539.625 C4.32530432 538.63043226 4.32530432 538.63043226 4.0833168 537.61577225 C-16.25335972 452.2793064 -34.49983265 366.40219868 -78.25 132.5 C-78.42545349 131.46425842 -78.60090698 130.42851685 -78.78167725 129.36138916 C-82.2058964 109.05892376 -85.50597895 88.63284837 -85.38354492 67.99462891 C-85.37484482 65.77287135 -85.40437697 63.5535514 -85.43554688 61.33203125 C-85.51150258 45.85306424 -82.37905189 31.22431913 -71.9765625 19.1640625 C-53.25186721 0.99623548 -24.53851092 -0.00341079 0 0 Z " fill="#1072BA" transform="translate(2131.9375,592.5625)"/>
<path d="M0 0 C0.76360397 0.00291284 1.52720795 0.00582568 2.31395143 0.00882679 C3.11926567 0.00797237 3.92457991 0.00711794 4.75429761 0.00623763 C7.47366211 0.00458036 10.19296596 0.0101082 12.91232485 0.01555592 C14.85333435 0.01583776 16.79434397 0.01568011 18.73535341 0.01511341 C24.02232492 0.01482533 29.30927396 0.02072375 34.59624022 0.02768737 C40.11492561 0.03391917 45.63361146 0.03452457 51.15229982 0.03571278 C61.61060666 0.03882661 72.0689031 0.0470407 82.52720535 0.05706227 C94.43026549 0.0682218 106.33332611 0.07373345 118.23639017 0.0787577 C142.72920425 0.08922327 167.22200908 0.10682371 191.71481508 0.12908131 C193.90110804 5.73002353 196.08726542 11.33101865 198.27330488 16.93205982 C199.01478375 18.83181345 199.7562977 20.73155338 200.4978494 22.63127857 C206.02485287 36.79058783 211.53803438 50.95509922 217.02731508 65.12908131 C217.8202325 67.17532516 218.61320303 69.22154843 219.40622133 71.26775318 C221.03483896 75.47014981 222.6632407 79.67262999 224.29147524 83.87517506 C227.8692571 93.10904218 231.44989041 102.34180358 235.03033632 111.57463795 C237.00861533 116.67607276 238.98670556 121.77758078 240.96481508 126.87908131 C241.75648084 128.92074833 242.54814751 130.96241499 243.33981508 133.00408131 C257.58981508 169.75408131 271.83981508 206.50408131 286.08981508 243.25408131 C286.67760492 244.76995838 286.67760492 244.76995838 287.2772693 246.31645924 C288.06909217 248.35853141 288.86091142 250.40060497 289.65272707 252.44267994 C291.62947435 257.54065391 293.60628395 262.63860369 295.58322328 267.73650318 C299.17466838 276.99788411 302.76562471 286.2594532 306.35431093 295.52190357 C314.4412508 316.39430654 322.53837066 337.26251301 330.68487734 358.11174732 C337.02210202 374.33192295 343.31951119 390.567415 349.60666078 406.80705982 C353.54367755 416.9729388 357.49422689 427.13319284 361.47653383 437.28142506 C362.230441 439.20460178 362.98434727 441.12777886 363.73825258 443.05095631 C365.15247286 446.65791313 366.57110822 450.26309214 367.99215883 453.86736256 C368.62252134 455.47407291 369.25273852 457.08084029 369.88278383 458.68767506 C370.17239488 459.41848789 370.46200594 460.14930073 370.76039308 460.90225941 C372.71481508 465.90183522 372.71481508 465.90183522 372.71481508 468.12908131 C311.99481508 468.12908131 251.27481508 468.12908131 188.71481508 468.12908131 C171.64013376 419.18166152 171.64013376 419.18166152 163.56418413 395.62182957 C161.44754149 389.44893814 159.32701646 383.27737803 157.20700258 377.10564381 C156.97281681 376.42380213 156.73863104 375.74196045 156.49734873 375.0394569 C151.86098113 361.54146146 147.19990136 348.05208269 142.52731508 334.56658131 C142.16470583 333.52000355 141.80209657 332.47342579 141.42849916 331.39513355 C139.96645667 327.17545573 138.50438189 322.9557891 137.04217714 318.73616749 C132.77927349 306.43238594 128.52806677 294.12456538 124.27731508 281.81658131 C123.6949106 280.13024586 123.6949106 280.13024586 123.10074037 278.40984303 C121.52715142 273.85349808 119.95357203 269.29714984 118.38006777 264.74077564 C115.59992403 256.69071641 112.81839611 248.64113644 110.03622049 240.59177929 C108.4992502 236.1449204 106.96250974 231.69798207 105.42572206 227.25106007 C104.58332419 224.81366409 103.74081698 222.3763059 102.89819521 219.93898731 C101.73130402 216.56365202 100.56481365 213.18817845 99.39840883 209.81267506 C99.05349397 208.81532337 98.70857912 207.81797169 98.3532123 206.79039723 C96.78276074 202.24443398 95.22228706 197.69643934 93.71481508 193.12908131 C90.281429 201.32835059 87.420356 209.70068799 84.60153383 218.12517506 C84.11043835 219.58539074 83.61903183 221.04550185 83.12733644 222.50551564 C82.08795217 225.5930038 81.05003042 228.68097756 80.01333803 231.76937062 C77.30302853 239.84238474 74.58223937 247.91186648 71.85934633 255.98064381 C71.59059694 256.7772045 71.32184755 257.57376518 71.04495424 258.39446408 C66.64207588 271.43928974 62.15980221 284.45426366 57.58981508 297.44158131 C52.20713983 312.74817186 47.01480317 328.11049376 41.90939516 343.51164967 C36.51542497 359.77799668 30.98232804 375.9951435 25.42662233 392.2068401 C22.8711867 399.66577388 20.32884057 407.12913362 17.78828615 414.59314686 C7.32182541 445.3425627 7.32182541 445.3425627 2.83981508 458.31658131 C2.5241559 459.23648854 2.20849672 460.15639576 1.88327211 461.10417897 C-0.16775223 467.01164862 -0.16775223 467.01164862 -1.28518492 468.12908131 C-3.62545616 468.22670355 -5.93616873 468.25905735 -8.2768994 468.24933583 C-9.0168768 468.25019025 -9.7568542 468.25104468 -10.51925516 468.25192499 C-13.01750905 468.253582 -15.5156969 468.24805484 -18.01394469 468.2426067 C-19.79732073 468.24232485 -21.58069689 468.24248252 -23.36407286 468.2430492 C-28.22130683 468.24333726 -33.07851633 468.23743919 -37.93574458 468.23047525 C-43.0059944 468.2242431 -48.07624473 468.22363802 -53.14649779 468.22244984 C-62.75482185 468.21933611 -72.3631346 468.21112217 -81.97145367 468.20110035 C-92.9071802 468.18994049 -103.84290726 468.18442909 -114.77863806 468.17940491 C-137.28082664 468.16893959 -159.78300514 468.15133935 -182.28518492 468.12908131 C-181.54896639 464.23689416 -180.48969205 460.73118443 -179.08645445 457.02092701 C-178.62659651 455.79936405 -178.16673857 454.5778011 -177.69294554 453.31922108 C-177.18471269 451.98106997 -176.67639406 450.64295144 -176.16799742 449.30486256 C-175.63823675 447.90212835 -175.10880988 446.49926803 -174.57969481 445.09629017 C-173.15676774 441.32632472 -171.72901381 437.5582043 -170.30030257 433.79042774 C-168.80888462 429.85486737 -167.32187635 425.91764128 -165.83425719 421.98064381 C-162.32419104 412.69440299 -158.80609617 403.41121486 -155.28518492 394.12908131 C-155.03855353 393.47884747 -154.79192213 392.82861363 -154.53781706 392.15867573 C-150.66993511 381.9616829 -146.79752595 371.76641483 -142.9184857 361.57366139 C-137.85416572 348.26626722 -132.8120184 334.95067898 -127.78518492 321.62908131 C-121.40723312 304.72755562 -114.99890459 287.83775005 -108.57717711 270.95281178 C-102.96118217 256.18524614 -97.36335632 241.41097413 -91.78518492 226.62908131 C-85.40714973 209.72758694 -78.99890469 192.83775031 -72.57717711 175.95281178 C-66.96118217 161.18524614 -61.36335632 146.41097413 -55.78518492 131.62908131 C-49.41183867 114.74001242 -43.00862315 97.86247 -36.59127623 80.99007374 C-29.96958903 63.57921934 -23.37569099 46.15801033 -16.80276304 28.72869068 C-15.24259898 24.59215884 -13.68011167 20.45651472 -12.11489683 16.32189137 C-11.57270463 14.88895482 -11.03125021 13.45573884 -10.49062926 12.02220875 C-9.78678253 10.15708906 -9.07909687 8.29341933 -8.37112242 6.42986256 C-7.98746519 5.41706227 -7.60380797 4.40426197 -7.20852476 3.36077076 C-5.57743722 -0.58152729 -4.08756364 0.01182549 0 0 Z " fill="#1072BA" transform="translate(1570.2851849198341,1432.8709186911583)"/>
<path d="M0 0 C65.01 0 130.02 0 197 0 C202.74786954 13.7948869 202.74786954 13.7948869 205.3203125 20.41796875 C205.6162883 21.17668777 205.9122641 21.9354068 206.21720886 22.71711731 C207.18789815 25.2066921 208.15650332 27.69707151 209.125 30.1875 C209.82569029 31.98635722 210.52645731 33.78518455 211.22729492 35.58398438 C218.62671173 54.58350427 225.9944624 73.59534699 233.36071777 92.60774231 C237.34367909 102.88777905 241.32944401 113.16672777 245.31552124 123.44555664 C247.29380025 128.54699145 249.27189047 133.64849947 251.25 138.75 C252.04166576 140.79166702 252.83333243 142.83333368 253.625 144.875 C267.875 181.625 282.125 218.375 296.375 255.125 C296.96278984 256.64087708 296.96278984 256.64087708 297.56245422 258.18737793 C298.35427709 260.2294501 299.14609634 262.27152367 299.93791199 264.31359863 C301.91465927 269.4115726 303.89146887 274.50952238 305.8684082 279.60742188 C309.4598533 288.8688028 313.05080963 298.13037189 316.63949585 307.39282227 C324.72474585 328.26086368 332.81963554 349.12492464 340.96502686 369.96957397 C347.42354444 386.49858885 353.8390365 403.04417499 360.2434082 419.59423828 C363.68416885 428.48143132 367.13050571 437.36567797 370.6484375 446.22265625 C370.91615463 446.89784805 371.18387177 447.57303986 371.45970154 448.26869202 C372.65165893 451.27346045 373.84887174 454.27591017 375.0559082 457.2746582 C375.45382568 458.27456787 375.85174316 459.27447754 376.26171875 460.3046875 C376.60162842 461.15015137 376.94153809 461.99561523 377.29174805 462.86669922 C378 465 378 465 378 468 C317.61 468 257.22 468 195 468 C191.94997548 460.67994116 189.03529657 453.5470232 186.5390625 446.05859375 C186.07896538 444.69695854 186.07896538 444.69695854 185.60957336 443.30781555 C184.95321414 441.36452994 184.29863634 439.42064185 183.64572144 437.47619629 C181.87109412 432.19311586 180.08154638 426.91508938 178.29296875 421.63671875 C177.92911575 420.56209381 177.56526276 419.48746887 177.19038391 418.38027954 C173.83435347 408.48173304 170.39655894 398.61291622 166.9375 388.75 C160.44231113 370.21431565 154.05663415 351.64176027 147.6875 333.0625 C145.69826794 327.26029619 143.70877472 321.458182 141.71875 315.65625 C141.47454063 314.94425257 141.23033127 314.23225513 140.97872162 313.49868202 C134.46686978 294.51582257 127.89944634 275.55227266 121.32366943 256.59147644 C118.51695629 248.49668692 115.71860091 240.39902601 112.921875 232.30078125 C111.66689516 228.66857635 110.41179421 225.03641333 109.15664673 221.40426636 C108.34936274 219.06728744 107.54253269 216.73015166 106.73617554 214.39285278 C105.6261334 211.17553611 104.51442559 207.9587996 103.40234375 204.7421875 C102.90531952 203.2994622 102.90531952 203.2994622 102.39825439 201.82759094 C102.09530457 200.95233261 101.79235474 200.07707428 101.48022461 199.17529297 C101.21696884 198.41280243 100.95371307 197.65031189 100.68247986 196.86471558 C100.01991474 194.94603411 100.01991474 194.94603411 99 193 C98.58862793 194.20906006 98.17725586 195.41812012 97.75341797 196.66381836 C90.20663936 218.84337796 82.65571352 241.02149601 75.08197021 263.19186401 C70.54954664 276.45950685 66.0229428 289.72912222 61.5 303 C56.09491498 318.85891789 50.68489314 334.71613952 45.26733398 350.57080078 C42.27694276 359.3235624 39.29215929 368.07818763 36.31640625 376.8359375 C29.30387344 397.46588641 22.22260906 418.06939865 15.01000977 438.63037109 C14.71152634 439.48236588 14.41304291 440.33436066 14.10551453 441.21217346 C13.56156181 442.76440814 13.01669676 444.3163237 12.47053528 445.86778259 C9.89462399 453.21902564 7.46440995 460.60677016 5 468 C-55.06 468 -115.12 468 -177 468 C-175.02654816 462.07964448 -173.01560097 456.21088006 -170.83984375 450.3671875 C-170.53848511 449.55481628 -170.23712646 448.74244507 -169.92663574 447.90545654 C-168.93226941 445.22788452 -167.93514218 442.55135307 -166.9375 439.875 C-166.4125444 438.4647757 -166.4125444 438.4647757 -165.87698364 437.02606201 C-160.1180333 421.56299626 -154.24932932 406.14378612 -148.32928467 390.74179077 C-141.67108944 373.41628298 -135.10169934 356.05815991 -128.5625 338.6875 C-126.59664643 333.46603576 -124.63056328 328.24465802 -122.6640625 323.0234375 C-122.42304054 322.3834828 -122.18201859 321.7435281 -121.93369293 321.08418083 C-117.12505817 308.31803512 -112.28773897 295.56289076 -107.4375 282.8125 C-107.05830414 281.81557129 -106.67910828 280.81864258 -106.28842163 279.79150391 C-104.74162086 275.72499483 -103.19474231 271.65851537 -101.64768982 267.59210205 C-96.71571202 254.62684259 -91.79485551 241.65736337 -86.875 228.6875 C-86.17567352 226.84401474 -86.17567352 226.84401474 -85.46221924 224.96328735 C-79.05593705 208.07433947 -72.66421405 191.17995782 -66.28607178 174.28036499 C-60.31155635 158.45168856 -54.30539295 142.63515909 -48.29116821 126.8215332 C-42.67544573 112.05469984 -37.07816374 97.28106016 -31.5 82.5 C-25.66699937 67.04596527 -19.8204171 51.59713449 -13.95654297 36.15478516 C-13.12013721 33.95193889 -12.28402982 31.74897931 -11.44824219 29.54589844 C-10.28281332 26.47426203 -9.11618809 23.40308268 -7.94921875 20.33203125 C-7.60827682 19.43293533 -7.2673349 18.53383942 -6.9160614 17.60749817 C-4.67302672 11.71027466 -2.34401578 5.86003944 0 0 Z " fill="#1072BA" transform="translate(2479,1433)"/>
<path d="M0 0 C149.16 0 298.32 0 452 0 C452 45.54 452 91.08 452 138 C409.43 138 366.86 138 323 138 C323 246.9 323 355.8 323 468 C260.63 468 198.26 468 134 468 C134 359.1 134 250.2 134 138 C89.78 138 45.56 138 0 138 C0 92.46 0 46.92 0 0 Z " fill="#1072BA" transform="translate(984,1433)"/>
<path d="M0 0 C148.83 0 297.66 0 451 0 C451 45.54 451 91.08 451 138 C408.43 138 365.86 138 322 138 C322 246.9 322 355.8 322 468 C259.63 468 197.26 468 133 468 C133 359.1 133 250.2 133 138 C89.11 138 45.22 138 0 138 C0 92.46 0 46.92 0 0 Z " fill="#1072BA" transform="translate(1899,1433)"/>
</svg>
